<?xml version="1.0" encoding="UTF-8"?>
<svg id="Layer_6" data-name="Layer 6" xmlns="http://www.w3.org/2000/svg" viewBox="0 0 748.66 697.07">
  <defs>
    <style>
      .cls-1 {
        fill: #fdfefe;
      }

      .cls-1, .cls-2 {
        stroke-width: 3px;
      }

      .cls-1, .cls-2, .cls-3, .cls-4, .cls-5 {
        stroke-miterlimit: 10;
      }

      .cls-1, .cls-2, .cls-4, .cls-5 {
        stroke: #181818;
      }

      .cls-2 {
        fill: #fff;
      }

      .cls-6 {
        fill: #eeeae8;
      }

      .cls-6, .cls-7, .cls-8 {
        stroke-width: 0px;
      }

      .cls-3 {
        stroke: #1e1c1b;
        stroke-width: 2px;
      }

      .cls-3, .cls-7 {
        fill: #e46525;
      }

      .cls-4 {
        stroke-width: 6px;
      }

      .cls-4, .cls-5 {
        fill: #92d3d1;
      }

      .cls-5 {
        stroke-width: 4px;
      }

      .cls-8 {
        fill: #231f20;
      }
    </style>
  </defs>
  <path class="cls-2" d="m477.8,319.37l17.69-192.78s-75.68-50.69-96.76-87.43l-15.38,212.33,91.42,78.51,3.02-10.63Z"/>
  <polygon class="cls-4" points="292.06 509.78 234.88 632.87 494.14 666.63 295.41 498.55 292.06 509.78"/>
  <g>
    <path class="cls-2" d="m397.97,493.22l-176.88,78.7s-7.28,90.79-29.05,127.13l192.81-90.26,23.87-118.12-10.75,2.55Z"/>
    <g>
      <path class="cls-8" d="m272.78,627.55c1.31,1.74,2.23,3.8,2.76,6.16.62,2.75.4,5.14-.64,7.16-1.04,2.02-2.74,3.29-5.08,3.81-2.39.54-4.57.03-6.53-1.51-1.96-1.54-3.26-3.77-3.91-6.66-.47-2.1-.59-3.92-.36-5.47l2.01-.45c-.44,1.74-.42,3.67.06,5.81.48,2.16,1.48,3.8,2.98,4.91,1.5,1.11,3.2,1.46,5.1,1.03,1.96-.44,3.35-1.42,4.18-2.96.83-1.53,1-3.4.51-5.6-.34-1.51-.87-2.76-1.6-3.75l-4.33.97.95,4.23-1.64.37-1.45-6.49,7.01-1.57Z"/>
      <path class="cls-8" d="m265.34,613.19l2.18,9.73c1.22-.31,2.08-.94,2.57-1.88s.58-2.1.27-3.48c-.35-1.55-1.08-2.89-2.19-4l1.66-.37c.98,1.05,1.69,2.58,2.13,4.57.44,1.95.28,3.59-.48,4.92-.75,1.34-2.04,2.21-3.86,2.62-1.72.38-3.25.09-4.61-.88s-2.23-2.36-2.64-4.16c-.4-1.8-.25-3.3.46-4.5.71-1.2,1.9-1.98,3.56-2.35l.93-.21Zm-.99,2.6c-1.02.24-1.74.72-2.18,1.46-.43.73-.53,1.64-.29,2.71.23,1.04.73,1.86,1.49,2.45.76.59,1.64.87,2.64.82l-1.67-7.44Z"/>
      <path class="cls-8" d="m269.46,609.64l-1.9.43c.44-1.36.5-2.76.18-4.21-.43-1.94-1.17-2.79-2.2-2.56-.29.07-.53.21-.69.42-.17.21-.3.48-.39.79-.09.32-.16.68-.2,1.09-.04.41-.08.85-.12,1.32-.06.65-.13,1.23-.23,1.74-.09.51-.23.94-.41,1.31-.18.37-.41.66-.69.89-.28.23-.63.39-1.06.48-.52.12-1.01.07-1.47-.14-.47-.21-.89-.53-1.27-.96-.38-.43-.71-.95-.99-1.55-.28-.6-.49-1.24-.64-1.91-.27-1.19-.34-2.3-.22-3.31l1.79-.4c-.3,1.13-.31,2.36-.01,3.68.09.41.21.78.36,1.09.15.32.32.58.51.78.19.21.4.35.61.44.22.09.44.11.67.05.29-.06.51-.18.68-.36.17-.17.29-.4.39-.69.09-.28.16-.62.2-1.01.04-.39.08-.82.12-1.31.05-.65.12-1.24.21-1.77.09-.53.22-.99.39-1.39.17-.4.4-.72.68-.98s.65-.44,1.09-.53c.55-.12,1.05-.08,1.52.13.47.21.89.54,1.27.98.38.44.71.98.98,1.6.28.63.49,1.3.66,2.02.32,1.42.37,2.7.17,3.83Z"/>
      <path class="cls-8" d="m265.52,590.66c.35.47.61,1.13.81,1.98.54,2.41-.27,3.86-2.42,4.34l-6.53,1.46.53,2.37-1.51.34-.53-2.37-2.7.6-1.07-2.08,3.27-.73-.78-3.47,1.51-.34.78,3.47,6.22-1.39c.74-.17,1.23-.44,1.48-.83.25-.38.29-.94.12-1.67-.12-.56-.35-1.01-.69-1.36l1.51-.34Z"/>
      <path class="cls-8" d="m262.75,577.82l.49,2.21-1.73.39v.05c1.55.66,2.53,1.93,2.95,3.79.31,1.37.26,2.51-.15,3.42-.41.91-1.09,1.47-2.06,1.68-2.06.46-3.6-.79-4.62-3.74l-1.39-4.03c-1.88.42-2.6,1.58-2.18,3.47.37,1.66,1.16,3.06,2.37,4.19l-1.81.41c-.99-1.2-1.69-2.68-2.08-4.45-.73-3.24.29-5.17,3.03-5.78l7.18-1.61Zm-5.09,3.46l1.11,3.24c.34,1,.72,1.72,1.13,2.18s.98.6,1.72.43c.54-.12.93-.46,1.16-1.02.23-.56.26-1.23.08-2.03-.25-1.09-.75-1.93-1.53-2.5-.77-.58-1.63-.76-2.57-.55l-1.1.25Z"/>
      <path class="cls-8" d="m261.33,571.46l.49,2.21-16.35,3.66-.49-2.21,16.35-3.66Z"/>
      <path class="cls-8" d="m253.29,561.16l1.65,7.35-1.39.31-1.65-7.35,1.39-.31Z"/>
      <path class="cls-8" d="m303.14,633.89l.49,2.21-16.35,3.66-.49-2.21,16.35-3.66Z"/>
      <path class="cls-8" d="m301.11,623.61c.46,2.04.3,3.78-.45,5.22-.76,1.45-1.99,2.36-3.7,2.74-1.85.42-3.45.11-4.77-.92-1.33-1.03-2.23-2.62-2.71-4.78-.46-2.05-.31-3.77.44-5.15.76-1.38,2.03-2.27,3.83-2.67,1.76-.39,3.31-.09,4.65.92,1.34,1,2.24,2.55,2.71,4.64Zm-10.11,2.09c.32,1.42.95,2.45,1.91,3.1.96.65,2.12.83,3.47.52,1.31-.29,2.25-.94,2.81-1.94.57-1,.7-2.21.38-3.6-.32-1.43-.94-2.44-1.85-3.04s-2.05-.75-3.42-.44c-1.38.31-2.36.93-2.93,1.87-.58.93-.7,2.11-.38,3.54Z"/>
      <path class="cls-8" d="m285.06,604.92l12.27,3.02.49,2.17-9.87,7.69-.54-2.42,7.24-5.29c.53-.39,1.01-.67,1.43-.83v-.05c-.59.03-1.12,0-1.61-.1l-8.89-1.85-.52-2.33Z"/>
      <path class="cls-8" d="m288.01,590.14l2.18,9.73c1.22-.31,2.08-.94,2.57-1.88.49-.94.58-2.1.27-3.48-.35-1.55-1.08-2.89-2.19-4l1.66-.37c.98,1.05,1.69,2.58,2.13,4.57.44,1.95.28,3.59-.48,4.93-.75,1.34-2.04,2.21-3.86,2.62-1.72.38-3.25.09-4.61-.88-1.35-.97-2.23-2.36-2.64-4.16-.4-1.8-.25-3.3.46-4.5.71-1.2,1.9-1.98,3.56-2.35l.93-.21Zm-.99,2.6c-1.02.24-1.74.72-2.18,1.46-.43.73-.53,1.64-.29,2.71.23,1.04.73,1.86,1.49,2.45.76.59,1.64.87,2.64.82l-1.67-7.44Z"/>
      <path class="cls-8" d="m289.78,574.23l.49,2.21-6.3,1.41c-2.34.52-3.28,1.85-2.8,3.99.25,1.1.78,1.94,1.61,2.51.83.57,1.75.75,2.76.52l6.3-1.41.49,2.21-11.04,2.47-.49-2.21,1.83-.41v-.05c-1.64-.73-2.67-2.08-3.12-4.05-.34-1.51-.21-2.75.4-3.72.6-.97,1.64-1.62,3.11-1.95l6.75-1.51Z"/>
      <path class="cls-8" d="m281.29,560.14l2.18,9.73c1.22-.31,2.08-.94,2.57-1.88.49-.94.58-2.1.27-3.48-.35-1.55-1.08-2.89-2.19-4l1.66-.37c.98,1.05,1.69,2.58,2.13,4.57.44,1.95.28,3.59-.48,4.92-.75,1.34-2.04,2.21-3.86,2.62-1.72.38-3.25.09-4.61-.88-1.35-.97-2.23-2.36-2.64-4.16-.4-1.8-.25-3.3.46-4.5.71-1.2,1.9-1.98,3.56-2.35l.93-.21Zm-.99,2.6c-1.02.24-1.74.72-2.18,1.46-.43.73-.53,1.64-.29,2.71.23,1.04.73,1.86,1.49,2.45.76.59,1.64.87,2.64.82l-1.67-7.44Z"/>
    </g>
  </g>
  <path class="cls-1" d="m358.8,380.01l-167.82-96.52s-77.64,47.62-119.83,51.45l186.54,102.58,109.5-50.32-8.4-7.18Z"/>
  <path class="cls-2" d="m554.5,334.99l91.71-170.49s-49.81-76.26-54.84-118.32l-97.23,189.39,53.42,108.02,6.94-8.6Z"/>
  <path class="cls-5" d="m505.81,643.21l150.55-307.22s-189.21-177.44-221.78-172.58l-59.99,112.9-17.94-6.73-107.36,202.7,244.99,194.48,11.53-23.55Z"/>
  <g>
    <path class="cls-7" d="m462.25,289.08c-4.38,6.47-9.02,10.66-13.93,12.57-4.91,1.91-9.44,1.46-13.59-1.35-1.93-1.3-3.3-2.68-4.13-4.13l4.28-6.31c.57,1.83,1.84,3.41,3.81,4.75,5.21,3.53,11.12.41,17.73-9.36l23.75-35.08,5.78,3.91-23.7,35Z"/>
    <path class="cls-7" d="m489.28,335.9l-5.65-3.82,4.17-6.16-.14-.09c-5.53,3.13-10.76,3.04-15.67-.29-8.4-5.69-8.85-14.06-1.37-25.12l15.76-23.28,5.61,3.8-15.09,22.29c-5.56,8.22-5.5,14.25.19,18.11,2.75,1.86,5.78,2.28,9.08,1.24s6.17-3.37,8.63-7l15.2-22.45,5.65,3.82-26.38,38.96Z"/>
    <path class="cls-7" d="m506.32,347.43l-5.64-3.82,39.05-57.67,5.64,3.82-39.05,57.67Z"/>
    <path class="cls-7" d="m523.39,358.99l-5.65-3.82,26.38-38.96,5.65,3.82-26.38,38.96Zm30.32-50.71c-1.01-.68-1.61-1.65-1.81-2.89-.2-1.24.1-2.45.89-3.61.79-1.17,1.8-1.9,3.04-2.19,1.23-.29,2.36-.1,3.37.59,1.03.7,1.65,1.68,1.85,2.94.2,1.26-.1,2.48-.89,3.64-.76,1.12-1.76,1.82-3.02,2.12-1.26.3-2.4.1-3.43-.6Z"/>
    <path class="cls-7" d="m575.27,367.99l-24.88-16.85c-2.84,4.4-4.06,8.46-3.63,12.19.42,3.73,2.4,6.79,5.93,9.18,3.97,2.69,8.6,3.71,13.88,3.07l-3.97,5.86c-4.78.39-9.72-1.14-14.81-4.59-4.98-3.37-7.69-7.79-8.14-13.25-.45-5.46,1.5-11.4,5.84-17.82,4.1-6.06,9-9.95,14.7-11.66,5.69-1.71,10.85-1.01,15.46,2.12,4.61,3.12,7.06,7.19,7.36,12.19.29,5.01-1.55,10.44-5.51,16.3l-2.22,3.27Zm-2.2-9.2c2.41-3.62,3.53-6.95,3.33-10-.19-3.05-1.66-5.51-4.42-7.37-2.66-1.8-5.63-2.28-8.92-1.43-3.28.85-6.29,2.82-9.03,5.93l19.03,12.89Z"/>
  </g>
  <g>
    <path class="cls-7" d="m110.64,518.17c-.03.18-.1.33-.22.45-.11.12-.29.2-.53.24-.24.04-.55.06-.93.05-.38,0-.84-.06-1.38-.15-.58-.1-1.05-.21-1.4-.33-.35-.12-.63-.23-.84-.35-.21-.12-.35-.25-.42-.4-.07-.15-.08-.31-.05-.5l3.33-19.33-19.84-3.42-3.33,19.33c-.03.18-.1.33-.22.45-.11.12-.29.2-.53.24-.24.04-.55.06-.93.05-.38,0-.85-.06-1.41-.16-.54-.09-.99-.2-1.37-.32-.37-.12-.66-.24-.87-.36-.21-.12-.35-.25-.42-.4s-.08-.31-.05-.5l7.21-41.83c.03-.18.1-.33.22-.45s.29-.2.53-.24c.24-.04.55-.06.94-.05.39.01.86.06,1.4.15.56.1,1.02.21,1.38.33.36.12.65.24.86.36.21.12.35.25.42.4.07.15.08.32.05.5l-3.01,17.45,19.84,3.42,3.01-17.45c.03-.18.1-.33.22-.45.11-.12.29-.2.53-.24s.54-.06.91-.05c.37,0,.84.06,1.43.16.54.09.99.2,1.35.32.36.12.65.24.86.36.21.12.35.25.42.4.07.15.08.31.05.49l-7.21,41.83Z"/>
    <path class="cls-7" d="m156.47,484.66c-.07.43-.16.79-.26,1.1-.1.31-.22.55-.35.72-.13.17-.28.29-.44.36-.16.07-.33.08-.51.05l-12.26-2.11-6.51,37.79c-.03.18-.1.33-.22.45-.11.12-.29.2-.53.24-.24.04-.55.06-.93.05-.38,0-.85-.06-1.41-.16-.54-.09-.99-.2-1.37-.32-.37-.12-.66-.24-.87-.36-.21-.12-.35-.25-.42-.4s-.08-.31-.05-.5l6.51-37.79-12.26-2.11c-.18-.03-.34-.1-.47-.22-.13-.11-.22-.28-.28-.48-.06-.2-.09-.47-.09-.79,0-.32.03-.7.11-1.13.07-.43.17-.8.28-1.11.11-.32.23-.57.36-.75.12-.19.27-.31.43-.38.16-.07.33-.08.51-.05l30.31,5.22c.18.03.33.1.46.22.13.12.23.28.3.5.07.22.09.5.08.83-.01.33-.05.71-.13,1.14Z"/>
    <path class="cls-7" d="m203.23,534.13c-.03.18-.1.33-.22.45-.12.12-.3.2-.54.24-.25.04-.55.06-.92.05-.37,0-.84-.06-1.42-.16-.53-.09-.98-.2-1.36-.32-.37-.12-.66-.24-.87-.36-.21-.12-.34-.25-.41-.4-.07-.15-.09-.32-.06-.5l6.54-37.96h-.07s-21.93,35.47-21.93,35.47c-.09.15-.21.26-.36.36-.14.09-.34.16-.59.19-.25.04-.54.05-.87.02-.33-.02-.72-.07-1.17-.15-.47-.08-.87-.17-1.2-.28s-.6-.21-.81-.33c-.21-.12-.37-.24-.47-.38-.1-.13-.17-.27-.19-.41l-8.12-40.66h-.03s-6.54,37.96-6.54,37.96c-.03.18-.1.33-.22.45s-.3.2-.54.24c-.25.04-.56.05-.94.05-.38,0-.86-.06-1.44-.16-.56-.09-1.01-.2-1.37-.32-.36-.12-.64-.24-.85-.35-.21-.12-.34-.25-.4-.4-.06-.15-.07-.31-.04-.49l6.91-40.08c.16-.94.53-1.57,1.1-1.89.57-.32,1.16-.42,1.78-.32l3.56.61c.73.13,1.36.3,1.88.53s.97.53,1.33.89c.36.36.64.79.83,1.29.2.5.34,1.06.45,1.71l7.03,33.71.17.03,18.39-29.23c.37-.63.74-1.16,1.12-1.58s.77-.74,1.17-.96c.4-.22.83-.35,1.28-.4.45-.05.97-.02,1.54.08l3.73.64c.34.06.66.17.95.32.29.15.53.36.71.61.18.25.31.55.39.9.08.35.08.76,0,1.23l-6.91,40.08Z"/>
    <path class="cls-7" d="m237.7,538.37c-.08.45-.16.82-.26,1.12-.1.29-.21.54-.35.74-.14.2-.29.33-.45.41-.16.08-.35.1-.55.06l-19.27-3.32c-.52-.09-.98-.35-1.38-.77-.4-.43-.53-1.08-.37-1.95l6.95-40.35c.03-.18.1-.33.22-.45.11-.12.29-.2.53-.24.24-.04.55-.06.94-.05s.86.06,1.4.15c.56.1,1.02.21,1.38.32.36.12.65.24.86.36.21.12.35.25.42.4s.08.31.05.49l-6.49,37.69,15.63,2.69c.2.04.37.12.5.24.13.13.23.3.29.5.07.21.1.47.09.8,0,.32-.05.71-.13,1.16Z"/>
  </g>
  <path class="cls-3" d="m432.72,154.8l-36.58,38.2c-8.84,9.23-23.2,9.12-31.92-.23l-25.68-27.56c-8.72-9.35-8.62-24.56.22-33.79l36.58-38.2c8.84-9.23,23.2-9.12,31.92.23l25.68,27.56c8.72,9.35,8.62,24.56-.22,33.79Z"/>
  <g>
    <path class="cls-6" d="m399.47,149.05c.59.32,1.03.6,1.33.83.29.24.44.5.43.78s-.17.62-.49,1.02c-.32.4-.78.91-1.39,1.55-.64.66-1.14,1.17-1.51,1.52-.37.35-.68.59-.92.73-.24.14-.45.19-.62.16-.17-.03-.36-.1-.57-.22l-6.41-3.44-9.07,9.47,3.13,6.6c.12.24.2.46.24.67.04.21,0,.45-.12.71-.11.26-.32.58-.63.95s-.72.84-1.26,1.39c-.57.6-1.04,1.05-1.4,1.34-.36.3-.67.44-.94.41-.26-.02-.51-.19-.73-.51s-.47-.78-.75-1.4l-13.69-30.45c-.13-.3-.22-.57-.25-.82-.03-.24.03-.51.18-.81.15-.3.41-.66.78-1.08.37-.42.87-.97,1.5-1.63.73-.77,1.33-1.37,1.78-1.8.45-.43.84-.74,1.15-.92.31-.18.59-.25.83-.22.24.03.52.14.82.31l28.58,14.86Zm-28.56-7.17l-.02.02,6.71,14.43,6.85-7.15-13.54-7.3Z"/>
    <path class="cls-6" d="m386.82,118.21c.93,1,1.38,1.89,1.35,2.68-.03.79-.57,1.72-1.61,2.81-1.06,1.1-1.94,1.66-2.65,1.68-.71.02-1.51-.46-2.41-1.42-.93-1-1.39-1.89-1.37-2.68s.56-1.73,1.61-2.83c1.05-1.09,1.93-1.64,2.65-1.66.72-.01,1.53.46,2.43,1.42Zm21.63,23.96c.12.13.19.29.21.46.02.18-.03.39-.15.65-.12.25-.31.55-.58.9-.27.34-.63.76-1.09,1.24-.46.48-.86.86-1.18,1.14-.33.28-.61.48-.86.6-.24.12-.45.17-.61.15s-.31-.1-.43-.23l-16.38-17.58c-.12-.13-.19-.29-.21-.46-.02-.18.03-.39.14-.66.11-.26.3-.57.56-.92.26-.35.62-.77,1.08-1.25s.86-.86,1.19-1.13c.33-.27.63-.47.87-.58.25-.12.46-.16.62-.14.17.02.31.1.43.23l16.38,17.58Z"/>
  </g>
  <g>
    <path class="cls-8" d="m175.48,365.85l-1.53-1.43c1.56-.55,2.86-1.38,3.9-2.5,1.04-1.11,1.62-2.24,1.76-3.39.13-1.15-.22-2.11-1.05-2.89-.83-.77-1.79-1.03-2.91-.77-1.11.26-2.27,1.04-3.48,2.33-.41.44-1.14,1.29-2.2,2.56l-6.31-5.91,7.12-7.61,1.3,1.22-5.53,5.91,3.69,3.45c.43-.5.83-.96,1.22-1.37,1.57-1.68,3.13-2.66,4.66-2.95,1.54-.29,2.9.12,4.07,1.22,1.22,1.14,1.74,2.55,1.55,4.24-.18,1.69-1.08,3.39-2.69,5.11-1.36,1.45-2.55,2.38-3.56,2.77Z"/>
    <path class="cls-8" d="m191.92,348.24l-1.55-1.45c1.5-.44,2.79-1.24,3.89-2.42,1.48-1.58,1.79-2.76.95-3.55-.24-.22-.51-.35-.8-.37-.29-.02-.61.02-.96.13-.34.11-.71.27-1.11.49-.39.21-.81.45-1.26.7-.62.35-1.19.64-1.7.86s-.99.37-1.43.43c-.44.06-.85.04-1.22-.08-.38-.11-.74-.33-1.08-.65-.42-.39-.68-.86-.78-1.41-.1-.54-.07-1.12.09-1.73s.42-1.22.79-1.84c.37-.62.81-1.2,1.32-1.75.91-.97,1.86-1.71,2.84-2.23l1.46,1.36c-1.21.42-2.31,1.17-3.32,2.24-.31.34-.57.67-.76,1-.19.33-.32.64-.39.94-.07.3-.08.57-.02.82.06.25.18.46.36.64.23.22.48.35.74.39s.54.02.86-.07c.31-.09.66-.23,1.03-.43.37-.2.79-.43,1.26-.69.62-.35,1.19-.65,1.72-.9s1.03-.41,1.49-.5c.46-.09.89-.08,1.3.01.4.1.79.32,1.15.66.44.42.72.9.82,1.45.1.55.07,1.13-.1,1.75-.17.61-.45,1.23-.84,1.87-.39.63-.86,1.24-1.41,1.82-1.08,1.15-2.19,1.99-3.34,2.5Z"/>
    <path class="cls-8" d="m206.09,325.45l-7.41,7.92c1.03.91,2.12,1.29,3.26,1.16,1.15-.13,2.25-.76,3.3-1.89,1.18-1.26,1.94-2.74,2.26-4.42l1.35,1.27c-.35,1.52-1.28,3.1-2.8,4.72-1.48,1.58-3.06,2.45-4.72,2.59s-3.24-.48-4.72-1.87c-1.4-1.31-2.08-2.87-2.03-4.69.05-1.81.75-3.46,2.13-4.92,1.37-1.47,2.82-2.25,4.33-2.34,1.51-.09,2.95.5,4.3,1.76l.76.71Zm-2.94.7c-.84-.77-1.72-1.13-2.64-1.07s-1.8.53-2.62,1.41c-.79.85-1.22,1.79-1.29,2.84-.07,1.05.23,2.01.88,2.88l5.67-6.06Z"/>
    <path class="cls-8" d="m221.49,317.29l-2.36,2.52-8.95.91-.04.04,4.32,4.04-1.68,1.8-13.31-12.46,1.68-1.8,8.44,7.9.04-.04.29-8.57,2.2-2.36-.53,9.26,9.9-1.26Z"/>
    <path class="cls-8" d="m202.18,381.02c-.21.6-.64,1.25-1.29,1.94-1.84,1.97-3.64,2.13-5.39.48l-5.32-4.98-1.8,1.93-1.23-1.15,1.8-1.93-2.2-2.05,1.22-2.23,2.66,2.49,2.65-2.83,1.23,1.15-2.65,2.83,5.07,4.74c.6.56,1.15.84,1.65.82s1.02-.32,1.58-.91c.42-.45.69-.94.8-1.45l1.23,1.15Z"/>
    <path class="cls-8" d="m208.81,365.81l-7.41,7.92c1.03.91,2.12,1.29,3.26,1.16,1.15-.13,2.25-.76,3.3-1.89,1.18-1.26,1.94-2.74,2.26-4.42l1.35,1.27c-.35,1.52-1.28,3.1-2.8,4.72-1.48,1.59-3.06,2.45-4.72,2.59s-3.24-.48-4.72-1.87c-1.4-1.31-2.08-2.87-2.03-4.69.05-1.81.75-3.46,2.13-4.92,1.37-1.47,2.82-2.25,4.33-2.34,1.51-.09,2.95.5,4.3,1.76l.75.71Zm-2.94.7c-.84-.77-1.72-1.13-2.64-1.06-.92.06-1.8.53-2.62,1.41-.79.85-1.22,1.79-1.29,2.84-.07,1.05.23,2.01.88,2.88l5.67-6.06Z"/>
    <path class="cls-8" d="m214.53,367.34l-1.55-1.45c1.5-.44,2.79-1.24,3.89-2.42,1.48-1.58,1.79-2.76.95-3.55-.24-.22-.51-.35-.8-.37-.29-.02-.61.02-.96.13-.34.11-.71.27-1.11.49-.39.21-.81.45-1.26.7-.62.35-1.19.64-1.7.86-.51.23-.99.37-1.43.43-.44.06-.85.04-1.22-.08-.38-.11-.74-.33-1.08-.66-.42-.39-.68-.86-.78-1.41-.1-.54-.07-1.12.09-1.73.16-.61.42-1.22.79-1.84.37-.62.81-1.2,1.33-1.75.91-.97,1.86-1.72,2.84-2.23l1.46,1.36c-1.21.42-2.31,1.17-3.32,2.24-.31.34-.57.67-.76,1s-.32.64-.39.94c-.07.3-.08.57-.02.82.06.25.18.46.37.64.23.22.48.35.74.39.26.04.54.02.86-.07.31-.09.66-.23,1.03-.43.37-.2.79-.43,1.26-.69.62-.35,1.19-.65,1.72-.9.53-.24,1.03-.41,1.49-.5.46-.09.89-.08,1.3.01.4.1.79.32,1.15.65.45.42.72.9.82,1.45.1.55.07,1.13-.1,1.75-.17.61-.45,1.23-.84,1.87-.39.63-.86,1.24-1.41,1.82-1.08,1.15-2.2,1.99-3.34,2.5Z"/>
    <path class="cls-8" d="m229.18,352.15c-.21.6-.64,1.25-1.29,1.94-1.84,1.97-3.64,2.13-5.39.48l-5.32-4.98-1.8,1.93-1.23-1.15,1.8-1.93-2.2-2.05,1.22-2.23,2.66,2.49,2.64-2.83,1.23,1.15-2.64,2.83,5.07,4.74c.6.56,1.15.84,1.65.82.5-.01,1.02-.32,1.58-.91.42-.45.69-.94.8-1.45l1.23,1.15Z"/>
  </g>
  <g>
    <path class="cls-8" d="m566.79,171.96c-2.2-.37-4.22-1.3-6.07-2.79-2.15-1.74-3.32-3.83-3.53-6.29-.21-2.46.61-4.83,2.46-7.11,1.88-2.33,4.16-3.65,6.84-3.95,2.68-.3,5.15.46,7.41,2.29,1.64,1.32,2.8,2.7,3.48,4.13l-1.58,1.95c-.6-1.75-1.73-3.3-3.39-4.65-1.69-1.36-3.54-1.9-5.55-1.61-2.02.29-3.77,1.36-5.26,3.21-1.54,1.9-2.25,3.8-2.13,5.7.12,1.9,1.04,3.54,2.75,4.92,1.17.95,2.38,1.54,3.62,1.77l3.41-4.22-3.29-2.66,1.29-1.59,5.06,4.09-5.51,6.82Z"/>
    <path class="cls-8" d="m582.1,171.15c-.11-.47-.45-.94-1.02-1.4-.73-.59-1.63-.74-2.68-.45-1.05.29-2.06,1.04-3.03,2.24l-4.43,5.48-1.72-1.39,8.69-10.74,1.72,1.39-1.79,2.21.04.03c.86-.56,1.71-.84,2.55-.86.85-.02,1.58.23,2.2.73.45.36.75.69.91.98l-1.44,1.78Z"/>
    <path class="cls-8" d="m578.41,183.05l-1.72-1.39,8.69-10.74,1.72,1.39-8.69,10.74Zm10.05-14.15c-.31-.25-.49-.57-.53-.95-.05-.39.06-.74.32-1.06.26-.32.58-.5.97-.54.39-.04.74.07,1.05.32.31.25.5.58.54.97s-.06.75-.32,1.07c-.25.31-.57.48-.97.52-.4.04-.75-.07-1.07-.32Z"/>
    <path class="cls-8" d="m591.07,193.28l-1.72-1.39,1.48-1.83-.04-.03c-1.92.74-3.71.44-5.37-.91-1.35-1.09-2.04-2.44-2.07-4.06-.03-1.61.62-3.25,1.97-4.91,1.44-1.78,3.03-2.84,4.79-3.18,1.76-.35,3.39.08,4.88,1.29,1.48,1.19,2.08,2.64,1.81,4.35l.04.03,5.38-6.65,1.72,1.39-12.86,15.9Zm2.21-6.25l1.28-1.58c.7-.87,1.01-1.83.92-2.9-.09-1.07-.57-1.95-1.45-2.67-1.05-.85-2.19-1.13-3.41-.85-1.22.28-2.38,1.1-3.48,2.46-1,1.24-1.5,2.45-1.51,3.63,0,1.18.48,2.17,1.45,2.96.96.77,2.02,1.06,3.17.85,1.16-.21,2.16-.84,3.02-1.9Z"/>
  </g>
  <g>
    <path class="cls-7" d="m261.38,243.61c-4.02-.6-8.29-2.43-12.82-5.49-5.84-3.95-9.36-8.83-10.55-14.63-1.2-5.8.09-11.47,3.85-17.03,4.04-5.97,9.28-9.46,15.73-10.46,6.44-1,12.7.55,18.77,4.66,3.89,2.64,6.77,5.33,8.64,8.09l-3.16,4.66c-1.93-3.48-4.67-6.43-8.22-8.83-4.71-3.19-9.51-4.35-14.37-3.47-4.87.88-8.92,3.72-12.17,8.51-3.08,4.55-4.16,9.1-3.25,13.65.91,4.55,3.59,8.33,8.04,11.35,4.12,2.79,8.25,4.37,12.4,4.75l-2.87,4.24Z"/>
    <path class="cls-7" d="m267.78,248.03l3.49-5.16c.3.96.76,1.96,1.38,2.99.62,1.03,1.34,2.03,2.15,2.99.81.96,1.67,1.87,2.57,2.71s1.79,1.55,2.65,2.13c2.96,2,5.5,3,7.64,2.99,2.14-.01,3.84-.95,5.11-2.83.68-1.01,1.03-2.05,1.05-3.12.02-1.08-.19-2.21-.63-3.41s-1.06-2.48-1.85-3.83c-.79-1.36-1.65-2.81-2.58-4.35-.98-1.63-1.87-3.2-2.65-4.72-.78-1.52-1.36-2.99-1.72-4.43-.36-1.44-.46-2.85-.28-4.24.17-1.39.73-2.78,1.67-4.17,1.15-1.7,2.56-2.9,4.24-3.61,1.67-.7,3.45-1.01,5.34-.92,1.89.09,3.82.51,5.8,1.27,1.98.76,3.85,1.74,5.63,2.94,4.05,2.74,6.69,5.18,7.95,7.32l-3.33,4.92c-1.39-3.17-3.98-6.04-7.78-8.61-1.05-.71-2.17-1.32-3.35-1.83-1.19-.51-2.34-.82-3.47-.92-1.13-.1-2.19.03-3.18.39-1,.36-1.84,1.06-2.54,2.08-.65.96-1.01,1.91-1.09,2.87-.08.96.07,1.98.44,3.07.38,1.09.93,2.27,1.66,3.56.73,1.28,1.6,2.73,2.59,4.34,1.02,1.65,1.95,3.29,2.77,4.91.82,1.62,1.43,3.21,1.82,4.77.39,1.56.52,3.07.37,4.54-.15,1.47-.69,2.9-1.63,4.29-1.25,1.84-2.7,3.13-4.35,3.87-1.66.74-3.43,1.05-5.31.94-1.89-.11-3.83-.58-5.82-1.42-2-.83-3.97-1.91-5.92-3.23-.65-.44-1.42-1.03-2.31-1.77-.89-.74-1.77-1.54-2.64-2.39-.87-.85-1.66-1.72-2.36-2.59-.71-.87-1.21-1.65-1.52-2.34Z"/>
    <path class="cls-7" d="m298.93,269.11l3.49-5.16c.3.96.76,1.95,1.38,2.98.62,1.03,1.34,2.03,2.15,2.99.81.96,1.66,1.87,2.57,2.71.91.84,1.79,1.55,2.65,2.13,2.96,2,5.5,3,7.64,2.99,2.14,0,3.84-.95,5.11-2.83.68-1.01,1.03-2.05,1.05-3.12.02-1.08-.19-2.21-.63-3.41-.44-1.2-1.06-2.48-1.85-3.83-.79-1.36-1.65-2.81-2.58-4.35-.98-1.63-1.87-3.2-2.65-4.72-.78-1.52-1.36-2.99-1.72-4.43-.36-1.44-.46-2.85-.28-4.24.17-1.39.73-2.78,1.67-4.16,1.15-1.7,2.56-2.9,4.24-3.61,1.67-.7,3.45-1.01,5.34-.92,1.89.09,3.82.51,5.8,1.27,1.98.76,3.85,1.74,5.63,2.94,4.05,2.74,6.69,5.18,7.95,7.32l-3.33,4.92c-1.39-3.17-3.98-6.04-7.78-8.61-1.05-.71-2.17-1.32-3.35-1.83-1.19-.51-2.34-.82-3.47-.92-1.13-.1-2.19.02-3.19.39-1,.36-1.84,1.06-2.54,2.08-.65.95-1.01,1.91-1.09,2.87-.08.96.07,1.98.45,3.07.38,1.09.93,2.27,1.66,3.56.73,1.28,1.6,2.73,2.59,4.34,1.02,1.65,1.95,3.29,2.77,4.91.82,1.62,1.43,3.21,1.82,4.77.39,1.56.52,3.07.37,4.54-.15,1.47-.69,2.9-1.63,4.29-1.25,1.84-2.7,3.13-4.35,3.87-1.66.74-3.43,1.05-5.31.94-1.89-.11-3.83-.58-5.82-1.42-2-.83-3.97-1.91-5.92-3.23-.65-.44-1.42-1.03-2.31-1.77-.89-.74-1.77-1.54-2.64-2.39-.87-.85-1.66-1.72-2.36-2.59-.71-.87-1.21-1.65-1.52-2.34Z"/>
  </g>
</svg>