<?xml version="1.0" encoding="UTF-8"?>
<svg id="Layer_19" data-name="Layer 19" xmlns="http://www.w3.org/2000/svg" viewBox="0 0 648.92 576.96">
  <defs>
    <style>
      .cls-1 {
        fill: #171717;
      }

      .cls-1, .cls-2, .cls-3, .cls-4, .cls-5 {
        stroke-width: 0px;
      }

      .cls-2 {
        fill: #2b2827;
      }

      .cls-6 {
        fill: #ef6c2e;
        stroke: #2b2827;
      }

      .cls-6, .cls-7, .cls-8, .cls-9, .cls-10, .cls-11, .cls-12, .cls-13, .cls-14 {
        stroke-miterlimit: 10;
      }

      .cls-6, .cls-14 {
        stroke-width: 2px;
      }

      .cls-3, .cls-11, .cls-13 {
        fill: #e46525;
      }

      .cls-7 {
        stroke: #151514;
      }

      .cls-7, .cls-8, .cls-9 {
        stroke-width: 4px;
      }

      .cls-7, .cls-8, .cls-9, .cls-10 {
        fill: none;
      }

      .cls-8, .cls-12, .cls-14 {
        stroke: #171818;
      }

      .cls-9 {
        stroke: #212020;
      }

      .cls-10 {
        stroke: #181818;
      }

      .cls-10, .cls-13 {
        stroke-width: 5px;
      }

      .cls-4 {
        fill: #181818;
      }

      .cls-11 {
        stroke: #1e1c1b;
      }

      .cls-12 {
        stroke-width: 3px;
      }

      .cls-12, .cls-14 {
        fill: #7bc6c6;
      }

      .cls-13 {
        stroke: #121212;
      }

      .cls-5 {
        fill: #1b1818;
      }
    </style>
  </defs>
  <path class="cls-12" d="m267.13,452.29s13.76,22.36,24.08,25.22,36.69,0,36.69,0c0,0,20.64-17.2,23.5-25.22s-60.19-17.77-60.19-17.77l-24.08,17.77Z"/>
  <ellipse class="cls-11" cx="309.32" cy="235.43" rx="142.4" ry="118.46"/>
  <path class="cls-13" d="m405.86,320.42s-39.35,40.72-39.35,53.33h-119.32s-19.23-49.92-32.8-53.33"/>
  <ellipse class="cls-10" cx="309.32" cy="235.43" rx="142.4" ry="118.46"/>
  <path class="cls-3" d="m285.61,344.87c-5.03.52-10.06.33-15.04-.57-.91-.16-2.45.71-1.81,1.76,2.05,3.35,5.2,5.87,8.9,7.17.98.34,3.35-.94,1.93-1.89-1.28-.86-2.04-2.05-2.31-3.57l-1.56,1.51c6.27-.42,12.47.8,18.14,3.52l1.65-2.04c-7.54-2.7-14.99-5.65-22.35-8.83-1.03-.44-3.33,1.08-1.93,1.89,6.97,4.06,14.61,6.79,22.59,8.02l.2-2.17c-3.4.74-6.87.91-10.32.51-.69-.08-1.59.21-1.88.91s.25,1.23.91,1.31c3.98.46,7.95.24,11.86-.61,1.22-.27,1.7-1.94.2-2.17-7.52-1.16-14.77-3.71-21.34-7.54l-1.93,1.89c7.35,3.18,14.8,6.13,22.35,8.83,1.28.46,3.37-1.22,1.65-2.04-6.08-2.91-12.84-4.17-19.56-3.72-.77.05-1.72.62-1.56,1.51.34,1.88,1.41,3.47,2.99,4.53l1.93-1.89c-3.34-1.18-6.06-3.42-7.9-6.44l-1.81,1.76c5.21.94,10.53,1.14,15.79.6.65-.07,1.53-.46,1.58-1.22s-.73-1.09-1.36-1.03h0Z"/>
  <path class="cls-3" d="m293.08,254.6c3.25,8.43,6.5,16.85,9.76,25.28s6.53,16.25,8.09,24.84c1.33,7.35,1.07,15.15-2.8,21.71-.09.16-.66,1.05-.3.51-.19.28-.38.56-.58.83-.49.68-1.02,1.33-1.58,1.97-.48.55-.99,1.07-1.5,1.58-.54.55.35-.3-.22.22-.34.3-.67.59-1.02.88-1.23,1.02-2.53,1.92-3.86,2.79-.7.46.51-.28-.22.14-.35.2-.7.41-1.05.6-.71.4-1.44.77-2.17,1.13-1.65.81-3.33,1.54-5.04,2.2-.22.09-.45.17-.67.26.33-.13.62-.22.12-.04-.45.16-.9.32-1.36.48-.85.29-1.71.57-2.57.84-3.59,1.12-7.23,2.05-10.88,2.92-1.51.36-3.42,1.62-3.6,3.32s1.47,2.55,2.9,2.85c10.49,2.18,21.1,3.72,31.78,4.6l1.88-6.37c-9.38.25-18.75.5-28.13.74l-.76,6.39c.86-.08,1.73-.14,2.59-.16.43-.01.87-.02,1.3-.01-.74,0,.47.03.61.03,1.8.1,3.6.33,5.37.7.21.04.42.09.64.13-.23-.05-.21-.05.05.02.42.11.84.22,1.25.34.83.24,1.66.51,2.47.81,1.64.6,3.09,1.26,4.47,2.02l2.55-5.51c.93-.16-.52.03-.71.04-.42.03-.85.05-1.27.05-.3,0-.28,0,.06,0-.28-.02-.56-.04-.85-.07-.42-.04-.84-.11-1.26-.17-1.24-.19.56.19-.65-.13-.41-.11-.82-.23-1.22-.37-.83-.29-1.69-.67-2.24-.98l-2.55,5.51c.84-.24,1.69-.46,2.54-.66.5-.11.99-.22,1.49-.32.21-.04.43-.08.64-.12-.48.09-.23.03.1-.02,1.8-.28,3.61-.48,5.42-.62,3.81-.28,7.64-.28,11.46-.21.22,0,.44,0,.67.01-.1,0-.51-.01-.01,0,.44.01.89.02,1.33.03.96.02,1.92.05,2.88.07,2.14.05,4.28.1,6.43.1,3.71.01,7.43-.1,11.13-.53,4.78-.56,9.37-1.66,13.87-3.37,1.25-.48,2.59-1.93,2.45-3.32s-1.5-2.34-2.87-2.43c-9.86-.61-19.79.63-29.12,3.93-1.67.59-4.13,1.98-3.54,4.16s3.46,2.26,5.15,1.83c17.44-4.41,34.88-8.82,52.32-13.23l-1.6-5.99c-7.52,2.63-15.04,5.26-22.56,7.89-1.59.56-3.78,1.72-3.57,3.74s2.31,2.48,3.99,2.45c15.32-.26,30.21-6.85,40.93-17.74,1.4-1.43.69-3.64-1.13-4.23-2.19-.71-4.57.04-6.15,1.65-.28.29-.57.57-.86.86-.05.05-.9.85-.42.41-.64.59-1.31,1.16-1.98,1.72-1.25,1.03-2.54,2-3.87,2.91-.33.23-.67.45-1.01.67-.14.09-1.31.82-.58.38-.69.42-1.39.82-2.1,1.2-1.42.77-2.88,1.47-4.36,2.11-.74.32-1.49.62-2.25.91.96-.37-.29.1-.39.13-.38.13-.77.26-1.15.38-1.54.49-3.1.91-4.68,1.26-.39.09-.79.17-1.19.25-.3.06-1.21.22-.4.08-.8.13-1.6.24-2.4.34-1.74.2-3.49.31-5.24.34l.42,6.19c7.52-2.63,15.04-5.26,22.56-7.89,1.67-.59,4.13-1.98,3.54-4.16s-3.46-2.26-5.15-1.83c-17.44,4.41-34.88,8.82-52.32,13.23l1.6,5.99c8.2-2.89,16.27-4.08,24.52-3.57l-.43-5.75c.69-.26-.3.1-.52.18-.41.14-.83.27-1.24.4-.9.27-1.8.51-2.72.73-.84.2-1.69.37-2.54.52-.53.1.04,0,.12-.02-.29.04-.57.09-.85.13-.5.07-1,.14-1.5.2-3.62.43-7.27.54-10.91.53-.88,0-1.77-.01-2.65-.02-.44,0-.89-.01-1.33-.02-.5,0-.09,0,.01,0-.3,0-.59-.01-.89-.02-2.15-.05-4.29-.11-6.44-.15-3.68-.07-7.36-.08-11.03.16-4.46.29-8.92.96-13.22,2.18-1.33.38-2.75,1.17-3.36,2.49-.47,1.04-.26,2.42.81,3.02,5.13,2.88,10.68,3.59,16.44,2.58,2.03-.35,5.53-3.86,2.55-5.51-7.53-4.18-16.09-6.03-24.69-5.24-1.91.18-4.55,1.34-4.79,3.52s2.31,2.91,4.02,2.87c9.38-.25,18.75-.5,28.13-.74,1.79-.05,4.19-1.25,4.66-3.11s-1.03-3.12-2.78-3.26c-10.68-.88-21.29-2.42-31.78-4.6l-.7,6.17c13.32-3.18,28.57-7.44,37.31-18.82,11.24-14.64,5.11-33.35-.84-48.79-3.83-9.94-7.67-19.88-11.51-29.82-.77-1.99-3.29-2.39-5.15-1.83-1.5.45-4.34,2.1-3.54,4.16h0Z"/>
  <path class="cls-3" d="m264.32,346.25l1.51.16-.51-1.91s4.4-1.17,4.35-1.19c-.28-.12-.66-.16-.96-.26-.64-.2-1.27-.45-1.9-.68-1.25-.46-2.5-.93-3.74-1.42-2.65-1.03-5.27-2.12-7.88-3.25-5.17-2.24-10.25-4.67-15.25-7.26l-.77,1.61-4.89,1.26c-.1.03-.06.06.13.07.15.09.62.23.73.28.59.25,1.18.52,1.77.79,1.17.54,2.34,1.11,3.48,1.7,2.42,1.26,4.79,2.63,7.08,4.11,4.52,2.93,8.75,6.3,12.64,10.03,2.73-.99,5.46-1.98,8.19-2.96-5.28-2.35-10.35-5.13-15.17-8.32l-8.19,2.96c5.37,2.77,10.67,5.76,15.07,9.96,2.73-.99,5.46-1.98,8.19-2.96-8.35-4.92-16.45-10.24-24.28-15.95l-6.91,3.26c1.91-.02,3.69.27,5.51.84l7.14-3.37c-2.44-.44-4.89-.88-7.33-1.32-1.84-.33-3.89.2-5.58.9-.51.21-3.24,1.45-2.09,2.27,11.7,8.3,24.42,14.99,37.83,20.05l7.14-3.37c-12.7-2.38-22.04-12.35-33.25-18-3.27-1.65-6.73-2.96-10.33-3.67-1.82-.36-3.91.21-5.58.9-.37.15-3.36,1.66-2.09,2.27,3.31,1.59,6.23,3.8,8.66,6.56,2.73-.99,5.46-1.98,8.19-2.96-2.54-2.25-4.28-5.12-5.18-8.39-.37-1.32-3.9-.41-4.71-.18-.75.21-4.36,1.19-3.99,2.51.98,3.51,2.97,6.61,5.69,9.02,1.55,1.38,9.57-1.4,8.19-2.96-2.43-2.76-5.34-4.97-8.66-6.56l-7.67,3.17c12.68,2.48,21.99,12.46,33.24,18.07,3.27,1.63,6.74,2.93,10.34,3.6,1.99.37,4.29-.25,6.08-1.11.94-.45,2.82-1.6,1.06-2.26-13.04-4.92-25.41-11.58-36.78-19.64l-7.67,3.17c2.44.44,4.89.88,7.33,1.32,1.99.36,4.28-.25,6.08-1.11.86-.41,2.9-1.68,1.06-2.26-2.27-.72-4.64-1.05-7.02-1.02-1.81.02-3.68.41-5.32,1.2-.5.24-2.6,1.32-1.59,2.06,7.83,5.71,15.93,11.03,24.28,15.95,1.5.88,4.12.07,5.6-.49.66-.25,3.71-1.41,2.59-2.47-4.4-4.2-9.7-7.19-15.07-9.96-1.58-.82-4.04-.1-5.6.49-.47.18-3.88,1.62-2.59,2.47,4.82,3.18,9.89,5.96,15.17,8.32,1.67.74,3.97.13,5.6-.49.66-.25,3.7-1.41,2.59-2.47-4.57-4.38-9.6-8.25-15.02-11.51-2.71-1.63-5.51-3.11-8.38-4.42-1.37-.63-2.76-1.35-4.26-1.56-2.66-.36-5.93.42-8.14,1.96-.3.21-1.64,1.16-.77,1.61,5.98,3.11,12.09,5.97,18.31,8.56,3.1,1.29,6.23,2.52,9.38,3.69,1.52.56,2.98,1.12,4.62,1.22,2.69.15,5.64-.72,7.92-2.11.34-.21,1.13-.75,1.02-1.29s-1.17-.58-1.53-.61l-1.51-.16c-1.98-.21-4.5.57-6.15,1.65-.38.25-1.17.74-1.02,1.29s1.13.57,1.53.61h0Z"/>
  <path class="cls-3" d="m230.72,325.12l.33-.05,1.7.09c-1.01-.16-1.72-.95-2.39-1.66-.85-.9-1.67-1.82-2.51-2.73-1.73-1.88-3.45-3.76-5.18-5.63-1.32-1.44-9.28,1.23-8.44,2.67.75,1.28,1.49,2.55,2.24,3.83l7.91-2.89c-2.14-.86-4.28-1.73-6.42-2.59-1.57-.63-4.15.27-5.58.87-.66.28-3.13,1.38-2.07,2.36,3.03,2.78,6.14,5.49,9.37,8.04,1.54,1.21,3.12,2.21,4.93,2.95s3.66,1.2,5.47,1.84c3.43,1.22,6.51,3.24,9.21,5.66s5.47,5.11,8.75,7.06c3.57,2.11,7.51,3.61,11.58,4.41,2,.39,4.29-.2,6.08-1.08.7-.34,3.03-1.98,1.04-2.37-3.44-.67-6.74-1.83-9.8-3.54-3.24-1.81-5.93-4.21-8.64-6.71s-5.76-4.67-9.24-6.14-7.11-2.05-10.18-4.29c-3.66-2.67-7.07-5.76-10.4-8.82l-7.65,3.23c2.14.86,4.28,1.73,6.42,2.59,1.37.55,3.8-.16,5.08-.66.51-.2,3.36-1.32,2.82-2.23-.75-1.28-1.49-2.55-2.24-3.83l-8.44,2.67c2.12,2.3,4.23,4.6,6.35,6.91.88.96,1.74,2.09,2.85,2.81,1.62,1.04,3.63,1.01,5.45.64,1.13-.23,2.27-.53,3.31-1.04.46-.23,1.58-.79,1.77-1.39.49-1.52-2.95-1.05-3.51-.94h0Z"/>
  <path class="cls-3" d="m393.24,325.3c-4.85,4.71-9.69,9.43-14.54,14.14-1.36,1.33,1.22,1.37,2.02,1.29,1.15-.12,2.3-.37,3.38-.77.83-.31,1.8-.64,2.44-1.27,4.85-4.71,9.69-9.43,14.54-14.14,1.36-1.33-1.22-1.37-2.02-1.29-1.15.12-2.3.37-3.38.77-.83.31-1.8.64-2.44,1.27h0Z"/>
  <path class="cls-3" d="m399.29,315.97c-1.8,2.76-3.78,5.41-5.94,7.9-.12.13-.23.28-.35.4.32-.32.15-.17-.06.07-.27.3-.54.59-.81.89-.55.59-1.1,1.17-1.67,1.74-1.19,1.2-2.43,2.36-3.7,3.48-.49.43-1.04,1.2-.85,1.91s1.06,1.11,1.69,1.23c2.06.4,4.56-.25,6.15-1.65,5.23-4.59,9.85-9.91,13.65-15.74,1.1-1.69-.95-2.61-2.37-2.63-1.92-.02-4.6.65-5.73,2.39h0Z"/>
  <path class="cls-3" d="m387.88,332.26c.51.6,1.41.77,2.15.82,1.06.08,2.13-.04,3.15-.33,1.71-.48,3.16-1.32,4.35-2.62s2.37-2.66,3.55-3.99c2.37-2.66,4.74-5.32,7.1-7.98.42-.47.47-1.18.03-1.64-.51-.54-1.65-.66-2.31-.64-2.06.04-4.35.72-5.76,2.3-1.87,2.1-3.74,4.21-5.62,6.31-.91,1.02-1.82,2.04-2.73,3.06-.47.53-.94,1.05-1.4,1.58-.25.28-.5.56-.74.84-.08.09-.48.52-.07.1,1.01-1.06,3.52-1.58,4.4-1.52l1.75.29-.12-.04.56.35c-.08-.04-.15-.1-.2-.18-.47-.55-1.69-.64-2.31-.64-1.1,0-2.39.26-3.4.7s-3.61,1.8-2.39,3.24h0Z"/>
  <rect class="cls-14" x="242.48" y="373.76" width="130.13" height="78.54" rx="12" ry="12"/>
  <path class="cls-9" d="m330.88,373.76s54.34-52.74,34.28-88.85c-20.06-36.11-9.75-18.92-9.75-18.92"/>
  <line class="cls-8" x1="242.48" y1="396.11" x2="372.61" y2="396.11"/>
  <line class="cls-8" x1="242.48" y1="424.78" x2="369.61" y2="424.78"/>
  <path class="cls-2" d="m7.44,383.69c.56,0,1.63-.2,1.92-.76s-.25-.75-.76-.75c-.56,0-1.63.2-1.92.76s.25.75.76.75h0Z"/>
  <path class="cls-3" d="m256.75,347.85l-6.54-3.98c-.61-.37-3.13.08-2.58,1.18.88,1.76,1.94,3.34,3.3,4.76l2.46-1.41c-3.29-2.69-6.04-5.96-8.18-9.62-.54-.92-3.27-.02-2.78,1,1.34,2.78,2.98,5.37,4.97,7.73l2.46-1.41c-3.43-2.82-6.26-6.36-8.26-10.32-.55-1.09-3.26-.5-2.9.78.81,2.82,1.92,5.5,3.3,8.09l2.67-1.23c-1.03-1.17-2.05-2.34-3.08-3.52-.66-.75-2.66-.31-2.79.75-.23,1.79-.11,3.56.38,5.3l2.9-.78c-1.91-3.79-3.88-7.69-7.14-10.52-2.97-2.57-7.17-3.81-9.21-7.35-.59-1.02-3.36-.01-2.67,1.23,2.05,3.67,6.09,5.78,8.88,8.84,3.05,3.34,5.43,7.22,7.79,11.06.62,1.01,3.41-.02,2.67-1.23-2.36-3.84-4.74-7.71-7.79-11.06-2.78-3.06-6.83-5.18-8.88-8.84l-2.67,1.23c1.96,3.38,5.78,4.73,8.76,7,3.43,2.62,5.47,6.65,7.37,10.42.55,1.09,3.26.5,2.9-.78-.45-1.59-.57-3.15-.36-4.79l-2.79.75c1.03,1.17,2.05,2.34,3.08,3.52.77.88,3.35.05,2.67-1.23-1.3-2.43-2.3-4.99-3.06-7.64l-2.9.78c2.18,4.33,5.16,8.05,8.9,11.13.75.61,3.32-.38,2.46-1.41-1.88-2.23-3.47-4.65-4.74-7.28l-2.78,1c2.25,3.83,5.15,7.16,8.59,9.97.76.62,3.36-.46,2.46-1.41-1.22-1.29-2.27-2.72-3.06-4.31l-2.58,1.18,6.54,3.98c.99.6,3.59-.78,2.26-1.58h0Z"/>
  <path class="cls-3" d="m313.55,355.83c.64.48-1.51.82-1.63.85-.98.2-1.96.35-2.95.46-2.05.22-4.11.25-6.17.09l-.6,2.21c4.14-.25,8.29-.31,12.44-.16.7.03,1.58-.18,1.88-.91.29-.69-.27-1.18-.9-1.29-3.69-.62-7.39-1.24-11.08-1.85l-.21,2.14c3.53-1.07,7.16-1.42,10.83-.99l.21-2.14c-1.2.21-2.4.1-3.56-.26l-.94,2.13c4.12-.48,8.27-.57,12.41-.24l-.17-2c-2.77,1.07-5.69,1.65-8.66,1.81l.17,2.16c3.56-1.22,7.27-1.76,11.03-1.52l.21-2.14c-.98.3-1.95.5-2.97.59-.64.05-1.54.47-1.59,1.21s.74,1.07,1.36,1.02c1.28-.11,2.53-.34,3.76-.72,1.06-.32,1.84-2.04.21-2.14-4.27-.27-8.52.24-12.57,1.63-1.38.47-1.62,2.25.17,2.16,3.52-.19,6.91-.96,10.2-2.22,1.04-.4,1.07-1.9-.17-2-4.39-.35-8.78-.29-13.16.21-.57.07-1.27.34-1.51.92-.2.49.05,1.05.57,1.21,1.93.59,3.79.67,5.77.32,1.22-.21,1.71-1.97.21-2.14-4.16-.49-8.35-.12-12.37,1.1-1.15.35-1.77,1.88-.21,2.14,3.69.62,7.39,1.24,11.08,1.85l.98-2.2c-4.4-.17-8.8-.13-13.19.13-.61.04-1.39.41-1.55,1.06-.14.6.34,1.1.94,1.15,3.5.27,6.99.08,10.44-.61,1.34-.27,2.88-.56,3.79-1.67.78-.95.71-2.3-.28-3.04-1.09-.81-3.58.71-2.22,1.73h0Z"/>
  <path class="cls-3" d="m393.99,327.07c-2.77,3.24-5.54,6.49-8.31,9.73-.33.38-.36.91.08,1.22.52.35,1.22.21,1.75,0,3.02-1.18,5.55-3.71,6.61-6.79.53-1.55-2.36-1.47-2.76-.29-.45,1.3-1.1,2.41-2.03,3.4-.44.46-.81.79-1.41,1.19-.14.1-.28.19-.43.28.19-.12-.21.11-.25.13-.32.17-.66.32-1,.45l1.84,1.22c2.77-3.24,5.54-6.49,8.31-9.73.43-.5.27-1.13-.36-1.35-.66-.23-1.59.01-2.05.55h0Z"/>
  <path class="cls-3" d="m267.31,349.72c-.88-2.51-1.74-5.03-2.58-7.56l-2.9.78c.63,1.12.88,2.37,1.28,3.57.37,1.11.95,2.12,1.77,2.96,1.58,1.61,3.78,2.5,5.83,3.32.54.22,1.37-.03,1.87-.26.23-.11,1.05-.52.67-.87-1.38-1.24-2.78-2.47-4.15-3.73-1.14-1.05-2.24-2.16-2.77-3.65l-2.81.91c2.34,2.16,4.96,3.99,7.79,5.45.57.29,1.31.12,1.88-.1.14-.06,1.34-.68.83-.94-2.83-1.45-5.45-3.28-7.79-5.45-.38-.35-1.29-.09-1.69.04-.26.09-1.27.44-1.11.87.55,1.52,1.67,2.73,2.84,3.81,1.4,1.3,2.84,2.56,4.26,3.84l2.54-1.13c-1.95-.78-3.97-1.62-5.47-3.14-.78-.79-1.27-1.73-1.62-2.78-.39-1.18-.64-2.4-1.26-3.5-.27-.47-1.18-.27-1.59-.15-.28.08-1.47.44-1.3.93.84,2.53,1.7,5.05,2.58,7.56.28.79,3.15-.06,2.9-.78h0Z"/>
  <path class="cls-3" d="m274.45,350.26c-1.86-2.46-3.42-5.12-4.65-7.95-.26-.6-1.13-.57-1.66-.42-.37.11-1.5.59-1.23,1.19,1.29,2.96,2.92,5.77,4.87,8.35.65.86,3.44-.16,2.68-1.18h0Z"/>
  <path class="cls-3" d="m276.05,343.71c.54,0,1.64-.21,1.93-.74s-.26-.67-.74-.67c-.54,0-1.64.21-1.93.74s.26.67.74.67h0Z"/>
  <path class="cls-3" d="m275.69,343.47c1.61,0,2.26-2.01.29-2.01-1.61,0-2.26,2.01-.29,2.01h0Z"/>
  <path class="cls-4" d="m408.48,317.8c-.55,1.4-2.06,2.19-3.19,3.07-1.34,1.04-2.5,2.26-3.59,3.56-1.97,2.34-3.87,5.14-6.71,6.5-.44.21-1.15.71-.75,1.26.38.51,1.47.3,1.93.08,3.36-1.61,5.54-4.48,7.88-7.26,1.1-1.31,2.27-2.57,3.65-3.59,1.5-1.1,2.98-2.16,3.68-3.95.25-.64-.92-.75-1.28-.72-.66.07-1.38.39-1.63,1.04h0Z"/>
  <path class="cls-3" d="m417.37,356.27l.61.1c.17.02.33.01.5-.01.19-.01.38-.05.57-.1.19-.05.37-.11.55-.2.16-.06.3-.14.44-.24l.2-.17c.1-.09.14-.2.12-.33l-.09-.13c-.13-.09-.28-.14-.44-.14l-.61-.1c-.17-.02-.33-.01-.5.01-.19.01-.38.05-.57.1-.19.05-.37.11-.55.2-.16.06-.3.14-.44.24l-.2.17c-.1.09-.14.2-.12.33l.09.13c.13.09.28.14.44.14h0Z"/>
  <path class="cls-5" d="m387.07,341.46c1.02-.69,1.84-1.62,2.68-2.51s1.73-1.76,2.65-2.59c1.92-1.74,3.94-3.37,5.92-5.04.48-.41.73-1.12.14-1.56s-1.56-.28-2.08.16c-1.99,1.66-4,3.3-5.92,5.04-.96.87-1.9,1.76-2.8,2.7-.81.85-1.55,1.74-2.53,2.4-.53.36-.69,1.15-.14,1.56.62.46,1.5.23,2.08-.16h0Z"/>
  <path class="cls-3" d="m207.82,318.6c.64,0,1.53-.13,2.05-.55.37-.3.47-.63-.17-.63s-1.53.13-2.05.55c-.37.3-.47.63.17.63h0Z"/>
  <path class="cls-4" d="m207.4,318.58c2.09,2.08,4.32,4.01,6.68,5.78,1.23.93,2.5,1.81,3.8,2.64,1.19.77,2.57,1.39,3.65,2.31.96.82,1.54,1.98,2.55,2.76s2.17,1.25,2.9,2.29c.68.98.94,2.19,1.72,3.13s2.02,1.46,2.34,2.72c.21.83,3.11.08,2.9-.78-.29-1.16-1.25-1.77-2.07-2.54-1.01-.95-1.28-2.26-2.02-3.39-.65-1.01-1.66-1.55-2.63-2.2-1.13-.77-1.75-1.86-2.7-2.8-1-.99-2.39-1.59-3.57-2.34-1.3-.82-2.58-1.7-3.82-2.62-2.48-1.84-4.82-3.86-7.01-6.04-.62-.62-3.33.44-2.71,1.06h0Z"/>
  <path class="cls-1" d="m229.6,338.62c.37.2.71.43,1.03.69l-.2-.16c.71.58,1.29,1.29,1.73,2.1l-.11-.21c.22.42.4.86.53,1.32.07.26.34.41.58.48.33.09.76.07,1.09-.03s.71-.25.96-.52c.17-.19.34-.43.27-.7-.54-1.9-1.87-3.54-3.6-4.47-.29-.16-.65-.18-.97-.15-.36.04-.8.17-1.09.38-.22.16-.5.39-.53.68-.02.26.08.48.32.6h0Z"/>
  <rect class="cls-6" x="437.34" y="135.86" width="65.48" height="11.13" rx="5.56" ry="5.56" transform="translate(11.96 317.78) rotate(-37.8)"/>
  <rect class="cls-6" x="437.21" y="136.03" width="65.48" height="11.13" rx="5.56" ry="5.56" transform="translate(11.83 317.74) rotate(-37.8)"/>
  <rect class="cls-6" x="373.12" y="84.73" width="65.48" height="11.13" rx="5.56" ry="5.56" transform="translate(80.26 348.86) rotate(-51)"/>
  <rect class="cls-6" x="280.77" y="62.08" width="65.48" height="11.13" rx="5.56" ry="5.56" transform="translate(232.87 378.07) rotate(-87.61)"/>
  <rect class="cls-6" x="199.77" y="76.76" width="65.48" height="11.13" rx="5.56" ry="5.56" transform="translate(250.18 328.34) rotate(-113.6)"/>
  <rect class="cls-6" x="141.3" y="111.4" width="65.48" height="11.13" rx="5.56" ry="5.56" transform="translate(197.3 325.36) rotate(-130.27)"/>
  <rect class="cls-6" x="103.24" y="158.39" width="65.48" height="11.13" rx="5.56" ry="5.56" transform="translate(138.46 376.93) rotate(-141)"/>
  <rect class="cls-6" x="468.28" y="184.07" width="65.48" height="11.13" rx="5.56" ry="5.56" transform="translate(-27.69 275.92) rotate(-30)"/>
  <path class="cls-7" d="m295.45,372.57s-54.34-52.74-34.28-88.85,9.75-18.92,9.75-18.92"/>
</svg>