<?xml version="1.0" encoding="UTF-8"?>
<svg id="Layer_7" data-name="Layer 7" xmlns="http://www.w3.org/2000/svg" viewBox="0 0 309.92 93.29">
  <defs>
    <style>
      .cls-1 {
        fill: #e66725;
        stroke: #e66725;
        stroke-miterlimit: 10;
        stroke-width: 4px;
      }
    </style>
  </defs>
  <path class="cls-1" d="m69.42,77.1c-11.69-4.76-34.67-12.02-37.99-22.18-3.32-10.16-.85-21.31,6.56-29.65,8.18-9.21,21.63-14.62,35.49-16.98,13.86-2.37,28.29-1.99,42.56-1.61,33.21.89,66.43,1.77,99.64,2.66,10.93.29,22,.6,32.55,3.15s20.71,7.65,26.22,15.41c5.7,8.03,5.72,17.68,5.33,26.78-.28,6.36-.84,13.1-5.44,18.16-6.09,6.68-17.33,8.49-27.58,9.84-33.92,4.45-67.16,3.16-101.71,2.9-34.56-.26-70.11-4.76-100.7-18.56"/>
</svg>