<?xml version="1.0" encoding="UTF-8"?>
<svg id="Layer_6" data-name="Layer 6" xmlns="http://www.w3.org/2000/svg" viewBox="0 0 12.17 12.02">
  <defs>
    <style>
      .cls-1 {
        fill: #92d3d1;
        stroke: #181818;
        stroke-miterlimit: 10;
        stroke-width: .15px;
      }

      .cls-2 {
        fill: #e46525;
        stroke-width: 0px;
      }
    </style>
  </defs>
  <polygon class="cls-1" points="2.44 7.89 1.39 11.4 9.02 9.65 2.49 7.59 2.44 7.89"/>
  <path class="cls-1" d="m9.43,8.89l1.26-7.58S4.58.14,3.81.61l-.58,2.84-.5.08-1.03,5.1,7.63.85.1-.58Z"/>
  <g>
    <path class="cls-2" d="m5.51,2.67c-.06.17-.14.31-.24.4-.11.09-.22.14-.35.13-.06,0-.1-.01-.14-.03l.06-.17s.07.04.13.05c.16,0,.28-.12.36-.38l.31-.94h.17s-.31.95-.31.95Z"/>
    <path class="cls-2" d="m6.55,3.25h-.17s.05-.17.05-.17h0c-.11.12-.24.18-.39.18-.25-.01-.33-.16-.24-.46l.2-.63h.17s-.2.61-.2.61c-.07.22-.02.33.15.34.08,0,.16-.02.23-.08s.13-.14.16-.23l.2-.6h.17s-.34,1.05-.34,1.05Z"/>
    <path class="cls-2" d="m7.07,3.27h-.17s.5-1.56.5-1.56h.17s-.5,1.56-.5,1.56Z"/>
    <path class="cls-2" d="m7.58,3.29h-.17s.34-1.05.34-1.05h.17s-.34,1.05-.34,1.05Zm.34-1.32s-.05-.01-.07-.03c-.01-.02-.02-.05,0-.08.01-.03.03-.06.06-.08.03-.02.06-.03.09-.03.03,0,.05.01.07.03.02.02.02.05,0,.08,0,.03-.03.06-.06.08-.03.02-.06.03-.09.03Z"/>
    <path class="cls-2" d="m8.94,2.86l-.75-.03c-.04.12-.03.21,0,.27.04.07.11.1.22.11.12,0,.24-.03.37-.1l-.05.16c-.12.06-.25.09-.4.08-.15,0-.25-.06-.31-.16-.05-.1-.05-.23,0-.41.05-.16.14-.29.27-.39.13-.1.26-.15.4-.14.14,0,.23.05.28.15.05.09.05.22,0,.37l-.03.09Zm-.13-.15c.03-.1.03-.17,0-.23-.03-.06-.09-.09-.17-.09-.08,0-.16.02-.23.08-.07.05-.13.13-.18.22l.57.02Z"/>
  </g>
</svg>