<?xml version="1.0" encoding="UTF-8"?>
<svg id="Layer_20" data-name="Layer 20" xmlns="http://www.w3.org/2000/svg" viewBox="0 0 616.17 568.22">
  <defs>
    <style>
      .cls-1 {
        fill: #fafdfd;
      }

      .cls-1, .cls-2, .cls-3 {
        stroke: #2f3030;
        stroke-miterlimit: 10;
        stroke-width: 5px;
      }

      .cls-2 {
        fill: #e46525;
      }

      .cls-3 {
        fill: #92d3d1;
      }
    </style>
  </defs>
  <path class="cls-2" d="m223.56,99.22s-73.07,79.08-71.5,99.46c1.57,20.38,8.38,64.71-6.81,71.85-15.2,7.13-36.16,55.03-36.16,55.03,0,0,6.81-1.53-5.76,11.72l-15.72,17.32,58.17-25.48,102.18-5.1,116.86,1.53s74.94,1.53,76.51,1.02,43.49,4.08,43.49,4.08l27.25,12.23s-16.62-17.04-24.49-28.46c-.63-.91-1.2-1.79-1.71-2.62-6.81-11.21,7.34,1.02,18.86,1.02,0,0-33.01-27.52-41.4-41.27,0,0-4.72-18.34-7.34-39.24-2.62-20.89,15.72,15.29,15.72,15.29l-17.29-47.39-48.35-96.58-182.52-4.41Z"/>
  <path class="cls-3" d="m61.7,435.85h490.61s-68.88-173.43-235.24-185.39c-166.36-11.96-255.37,185.39-255.37,185.39Z"/>
  <ellipse class="cls-3" cx="307.01" cy="159.56" rx="107.02" ry="104.06"/>
  <rect class="cls-2" x="319.2" y="365.28" width="176.96" height="141.14" rx="12" ry="12"/>
  <path class="cls-1" d="m403.96,460.89h8.05c5.98,0,8.97,2.88,8.97,8.64,0,3.95-1.06,7.02-3.17,9.22-2.11,2.2-5.07,3.3-8.87,3.3h-11.32c-4.18,0-7.47-1.16-9.86-3.49-2.4-2.33-3.6-5.5-3.6-9.51,0-2.14.5-4.85,1.5-8.15l11.75-39.4.78-2.72c2.18-7.31,5.7-10.97,10.54-10.97,1.99,0,3.71.91,5.16,2.72,1.45,1.81,2.17,3.98,2.17,6.5,0,2.07-.64,5.24-1.92,9.51l-10.18,34.35Zm9.4-84.04c2.75,0,5.09,1.31,7.01,3.93s2.88,5.81,2.88,9.56-.96,6.94-2.88,9.56-4.26,3.93-7.01,3.93-5.09-1.31-7.01-3.93c-1.92-2.62-2.88-5.81-2.88-9.56s.96-6.94,2.88-9.56c1.92-2.62,4.26-3.93,7.01-3.93Z"/>
  <path class="cls-2" d="m195.63,124.15h225.35s-30.31-60.5-99.04-68.65c-68.73-8.15-119.63,48.98-126.31,68.65Z"/>
</svg>