<?xml version="1.0" encoding="UTF-8"?>
<svg xmlns="http://www.w3.org/2000/svg" viewBox="0 0 531.46 518.22">
  <defs>
    <style>
      .cls-1 {
        stroke-width: 4px;
      }

      .cls-1, .cls-2, .cls-3, .cls-4 {
        stroke: #2f3030;
        stroke-miterlimit: 10;
      }

      .cls-1, .cls-3 {
        fill: #fff;
      }

      .cls-5 {
        fill: #58595b;
        stroke-width: 0px;
      }

      .cls-2 {
        fill: #f7fcfc;
      }

      .cls-2, .cls-3, .cls-4 {
        stroke-width: 5px;
      }

      .cls-4 {
        fill: #e46525;
      }
    </style>
  </defs>
  <g id="Layer_15" data-name="Layer 15">
    <path class="cls-5" d="m316.54,410.97c11.44,17.62,22.94,35.29,36.67,51.24,12.61,14.66,27.29,27.82,44.34,37.11,9.35,5.09,19.38,8.99,29.81,11.17,1.32.28,2.7-.39,3.08-1.75.34-1.24-.42-2.8-1.75-3.08-18.07-3.77-34.65-12.73-48.9-24.31-15.43-12.53-28.19-27.95-39.66-44.1-6.69-9.42-12.99-19.12-19.28-28.81-1.75-2.69-6.08-.19-4.32,2.52h0Z"/>
  </g>
  <g id="Layer_20" data-name="Layer 20">
    <path class="cls-4" d="m186.65,83.47s-73.07,79.08-71.5,99.46c1.57,20.38,8.38,64.71-6.81,71.85-15.2,7.13-36.16,55.03-36.16,55.03,0,0,6.81-1.53-5.76,11.72l-15.72,17.32,58.17-25.48,102.18-5.1,116.86,1.53s74.94,1.53,76.51,1.02,43.49,4.08,43.49,4.08l27.25,12.23s-16.62-17.04-24.49-28.46c-.63-.91-1.2-1.79-1.71-2.62-6.81-11.21,7.34,1.02,18.86,1.02,0,0-33.01-27.52-41.4-41.27,0,0-4.72-18.34-7.34-39.24-2.62-20.89,15.72,15.29,15.72,15.29l-17.29-47.39-48.35-96.58-182.52-4.41Z"/>
    <path class="cls-2" d="m24.8,420.1h490.61s-68.88-173.43-235.24-185.39C113.81,222.74,24.8,420.1,24.8,420.1Z"/>
    <ellipse class="cls-3" cx="270.1" cy="143.8" rx="107.02" ry="104.06"/>
    <rect class="cls-4" x="282.29" y="349.53" width="176.96" height="141.14" rx="12" ry="12"/>
    <path class="cls-1" d="m367.05,445.14h8.05c5.98,0,8.97,2.88,8.97,8.64,0,3.95-1.06,7.02-3.17,9.22-2.11,2.2-5.07,3.3-8.87,3.3h-11.32c-4.18,0-7.47-1.16-9.86-3.49-2.4-2.33-3.6-5.5-3.6-9.51,0-2.14.5-4.85,1.5-8.15l11.75-39.4.78-2.72c2.18-7.31,5.7-10.97,10.54-10.97,1.99,0,3.71.91,5.16,2.72,1.45,1.81,2.17,3.98,2.17,6.5,0,2.07-.64,5.24-1.92,9.51l-10.18,34.35Zm9.4-84.04c2.75,0,5.09,1.31,7.01,3.93s2.88,5.81,2.88,9.56-.96,6.94-2.88,9.56-4.26,3.93-7.01,3.93-5.09-1.31-7.01-3.93c-1.92-2.62-2.88-5.81-2.88-9.56s.96-6.94,2.88-9.56c1.92-2.62,4.26-3.93,7.01-3.93Z"/>
    <path class="cls-4" d="m158.72,108.4h225.35s-30.31-60.5-99.04-68.65c-68.73-8.15-119.63,48.98-126.31,68.65Z"/>
  </g>
</svg>