<svg width="134" height="138" viewBox="0 0 134 138" fill="none" xmlns="http://www.w3.org/2000/svg">
<path d="M133.846 68.7201C133.846 103.426 108.79 132.118 76.2413 136.775C73.1969 137.211 70.0831 137.436 66.9231 137.436C63.2736 137.436 59.6936 137.135 56.2021 136.558C24.3399 131.291 0 102.92 0 68.7161C0 30.7652 29.9624 0 66.9231 0C103.884 0 133.846 30.7652 133.846 68.7161V68.7201Z" fill="#92D3D1"/>
<path d="M87.8835 27.4691H45.967C34.3867 27.4691 24.9683 37.1398 24.9683 49.0304V88.4058C24.9683 100.296 34.3867 109.967 45.967 109.967H87.8835C99.4638 109.967 108.882 100.296 108.882 88.4058V49.0304C108.882 37.1398 99.4638 27.4691 87.8835 27.4691ZM32.3751 49.0304C32.3751 41.3341 38.4716 35.0743 45.967 35.0743H87.8835C95.3789 35.0743 101.475 41.3341 101.475 49.0304V88.4058C101.475 96.1021 95.3789 102.362 87.8835 102.362H45.967C38.4716 102.362 32.3751 96.1021 32.3751 88.4058V49.0304Z" fill="white"/>
<path d="M66.9233 88.7778C77.6943 88.7778 86.4576 79.7797 86.4576 68.7201C86.4576 57.6605 77.6943 48.6624 66.9233 48.6624C56.1522 48.6624 47.389 57.6605 47.389 68.7201C47.389 79.7797 56.1522 88.7778 66.9233 88.7778ZM66.9233 56.2716C73.6094 56.2716 79.047 61.8548 79.047 68.7201C79.047 75.5854 73.6094 81.1686 66.9233 81.1686C60.2371 81.1686 54.7996 75.5854 54.7996 68.7201C54.7996 61.8548 60.2371 56.2716 66.9233 56.2716Z" fill="white"/>
<path d="M88.2688 51.8991C91.1706 51.8991 93.533 49.4735 93.533 46.494C93.533 43.5144 91.1706 41.0888 88.2688 41.0888C85.367 41.0888 83.0047 43.5144 83.0047 46.494C83.0047 49.4735 85.367 51.8991 88.2688 51.8991Z" fill="white"/>
</svg>
