<svg width="134" height="138" viewBox="0 0 134 138" fill="none" xmlns="http://www.w3.org/2000/svg">
<path d="M133.846 68.7201C133.846 103.426 108.789 132.118 76.2412 136.775C73.1968 137.211 70.0832 137.436 66.9231 137.436C63.2737 137.436 59.6935 137.135 56.2021 136.558C24.3398 131.291 0 102.92 0 68.7161C0 30.7652 29.9625 0 66.9231 0C103.884 0 133.846 30.7652 133.846 68.7161V68.7201Z" fill="#92D3D1"/>
<path d="M32.5637 45.5126C30.7795 43.8111 29.8893 41.7061 29.8893 39.2013C29.8893 36.6966 30.7795 34.4965 32.5637 32.795C34.348 31.0935 36.6448 30.2428 39.4618 30.2428C42.2788 30.2428 44.4832 31.0935 46.2636 32.795C48.0479 34.4965 48.938 36.6333 48.938 39.2013C48.938 41.7694 48.0479 43.8111 46.2636 45.5126C44.4794 47.2141 42.2133 48.0648 39.4618 48.0648C36.7103 48.0648 34.348 47.2141 32.5637 45.5126ZM47.4351 55.2704V107.411H31.3922V55.2704H47.4351Z" fill="#FEFFFC"/>
<path d="M100.855 60.4184C104.35 64.316 106.1 69.6697 106.1 76.4835V106.493H90.8584V78.6005C90.8584 75.1658 89.9913 72.4949 88.2571 70.5916C86.523 68.6884 84.1915 67.7387 81.2627 67.7387C78.3339 67.7387 76.0023 68.6923 74.2681 70.5916C72.534 72.4949 71.6669 75.1658 71.6669 78.6005V106.493H56.337V55.128H71.6669V61.9418C73.2199 59.6705 75.3125 57.878 77.9446 56.5564C80.5728 55.2387 83.5325 54.5779 86.8197 54.5779C92.6773 54.5779 97.3556 56.5287 100.851 60.4223L100.855 60.4184Z" fill="#FEFFFC"/>
</svg>
