<?xml version="1.0" encoding="UTF-8"?>
<svg id="Layer_6" data-name="Layer 6" xmlns="http://www.w3.org/2000/svg" viewBox="0 0 423.56 497.66">
  <polygon points="68.47 330.29 13.29 492.42 352.23 428.7 71.1 316.23 68.47 330.29" style="fill: #92d3d1; stroke: #181818; stroke-miterlimit: 10; stroke-width: 1.5px;"/>
  <path d="M356.56,404.2l55.49-356.02S143.82-6.77,110.12,15.33l-25.47,133.39-21.88,3.79-45.34,239.28,334.89,39.71,4.25-27.29Z" style="fill: #92d3d1; stroke: #181818; stroke-miterlimit: 10; stroke-width: 1.5px;"/>
  <g>
    <path d="M184.47,112.27c-2.48,8.15-6.06,14.42-10.72,18.8-4.66,4.38-9.75,6.45-15.26,6.21-2.55-.11-4.54-.59-5.95-1.43l2.43-7.96c1.26,1.32,3.2,2.04,5.82,2.15,6.9.3,12.23-5.7,15.98-18.02l13.47-44.23,7.67.34-13.44,44.13Z" style="fill: #e46525; stroke-width: 0px;"/>
    <path d="M230.35,139.26l-7.48-.33,2.37-7.77h-.18c-4.91,5.8-10.63,8.57-17.14,8.28-11.13-.49-14.58-7.7-10.33-21.64l8.94-29.36,7.44.33-8.56,28.11c-3.15,10.36-.96,15.71,6.58,16.04,3.65.16,7.09-1.12,10.31-3.85,3.22-2.73,5.53-6.38,6.92-10.95l8.62-28.3,7.48.33-14.96,49.12Z" style="fill: #e46525; stroke-width: 0px;"/>
    <path d="M252.94,140.24l-7.48-.33,22.14-72.72,7.48.33-22.14,72.72Z" style="fill: #e46525; stroke-width: 0px;"/>
    <path d="M275.57,141.23l-7.48-.33,14.96-49.12,7.48.33-14.96,49.12ZM290.68,79.48c-1.34-.06-2.33-.59-2.98-1.59-.65-1-.75-2.24-.3-3.71.45-1.47,1.29-2.67,2.53-3.61,1.24-.93,2.53-1.37,3.87-1.31,1.37.06,2.38.6,3.04,1.62.66,1.02.77,2.26.32,3.73-.43,1.41-1.27,2.59-2.53,3.53-1.26.95-2.57,1.39-3.94,1.33Z" style="fill: #e46525; stroke-width: 0px;"/>
    <path d="M335.16,120.95l-32.99-1.44c-1.54,5.47-1.43,9.76.34,12.85,1.77,3.09,5,4.74,9.68,4.94,5.26.23,10.65-1.38,16.18-4.83l-2.25,7.39c-5.06,2.95-10.97,4.28-17.72,3.99-6.6-.29-11.11-2.75-13.52-7.37-2.41-4.63-2.39-10.98.08-19.08,2.33-7.64,6.28-13.78,11.87-18.41,5.59-4.63,11.44-6.82,17.55-6.55,6.11.27,10.21,2.55,12.29,6.86,2.08,4.3,2,10.15-.25,17.54l-1.26,4.13ZM329.52,113.94c1.35-4.54,1.39-8.12.1-10.74-1.28-2.62-3.75-4-7.4-4.16-3.53-.15-6.93,1.04-10.2,3.59-3.27,2.55-5.85,5.95-7.73,10.21l25.23,1.1Z" style="fill: #e46525; stroke-width: 0px;"/>
  </g>
</svg>