<?xml version="1.0" encoding="UTF-8"?>
<svg xmlns="http://www.w3.org/2000/svg" viewBox="0 0 314.47 288.26">
  <defs>
    <style>
      .cls-1, .cls-2, .cls-3, .cls-4, .cls-5, .cls-6, .cls-7, .cls-8, .cls-9 {
        stroke-miterlimit: 10;
      }

      .cls-1, .cls-2, .cls-7 {
        stroke: #383636;
      }

      .cls-1, .cls-3, .cls-8 {
        fill: none;
      }

      .cls-1, .cls-4, .cls-8 {
        stroke-width: 2px;
      }

      .cls-10 {
        fill: #383636;
      }

      .cls-10, .cls-11, .cls-12, .cls-13, .cls-14 {
        stroke-width: 0px;
      }

      .cls-11 {
        fill: #3a3938;
      }

      .cls-12, .cls-5, .cls-9 {
        fill: #e5ab93;
      }

      .cls-13 {
        fill: #7f2618;
      }

      .cls-2 {
        fill: #6b3c93;
      }

      .cls-2, .cls-5, .cls-9 {
        stroke-width: 3px;
      }

      .cls-3 {
        stroke: #7f2618;
        stroke-width: 1.2px;
      }

      .cls-4 {
        stroke: #ab4726;
      }

      .cls-4, .cls-7 {
        fill: #aa4625;
      }

      .cls-14 {
        fill: #35302f;
      }

      .cls-5 {
        stroke: #423b39;
      }

      .cls-6 {
        fill: #232121;
        stroke: #993f25;
        stroke-width: .25px;
      }

      .cls-7 {
        stroke-width: 4px;
      }

      .cls-8 {
        stroke: #414042;
      }

      .cls-9 {
        stroke: #494443;
      }
    </style>
  </defs>
  <g id="Layer_9" data-name="Layer 9">
    <path class="cls-7" d="m36.43,260.22S27.71,80.92,81.83,41.47c0,0,32.1-40.82,107.31-28.89,75.21,11.92,95.39,77.96,95.39,77.96,0,0,24.31,151.8,5.96,186.19H39.64l-3.21-16.51Z"/>
    <path class="cls-10" d="m95.81,98.65c.3,1.81.64,3.7.33,5.53-.3,1.74-1.23,3.13-2.43,4.39-1.13,1.18-2.37,2.48-3.85,3.23-.18.11-.37.19-.58.25-.42.13-.24.13.54,0,.02-.03-.08-.05-.07-.1.03-.17-.13-.54-.13-.74-.03-1.8.85-3.74,1.41-5.42.53-1.59,1.22-3.23,1.34-4.92.05-.67-2.1.01-2.3.12-6.32,3.44-12.7,6.75-19.15,9.93-.41.2-.84.57-.32.87s1.58-.12,2.03-.34c6.45-3.18,12.84-6.49,19.15-9.93l-2.3.12c-.16,2.23-1.31,4.5-1.97,6.62-.34,1.08-1.64,4.23-.12,4.95,1.11.53,2.87-.26,3.84-.72,1.75-.84,3.21-2.15,4.58-3.5s2.69-2.91,3.13-4.86c.47-2.07.13-4.21-.22-6.27-.12-.71-3.04-.06-2.9.78h0Z"/>
    <path class="cls-10" d="m96.45,97.87c.59,3.7,1.42,9.17-2.22,11.7-1.65,1.15-4.19.98-6.11,1.15-2.48.21-4.97.43-7.45.64l1.1,1.55c3.75-3.65,7.5-7.29,11.25-10.94.46-.45.24-1.1-.25-1.38-.61-.35-1.39-.13-1.94.24-1.62,1.07-3.35,1.97-5.16,2.68s-3.7,1.01-5.48,1.72c-1.65.66-2.93,1.77-4.19,2.99-1.23,1.19-2.54,2.63-4.37,2.7-1.67.07-2.21,2.27-.24,2.19s3.83-1.04,5.34-2.36c1.4-1.22,2.6-2.82,4.35-3.57,1.88-.81,3.97-1.13,5.88-1.89,2.05-.81,3.96-1.86,5.8-3.07l-2.19-1.15c-3.75,3.65-7.5,7.29-11.25,10.94-.83.8.31,1.62,1.1,1.55,2.98-.26,5.96-.51,8.94-.77,2.49-.21,5.06-.39,7.08-2.04,4.15-3.37,3.65-8.93,2.9-13.65-.22-1.38-3.12-.65-2.9.78h0Z"/>
    <path class="cls-10" d="m98.58,96.26c-2.45.16-5.12,1.43-7.32,2.47-1.13.53-2.17,1.24-3.31,1.76-1.26.58-2.57,1-3.8,1.68-2.39,1.32-4.77,2.67-7.04,4.2s-4.68,3.25-7.16,4.66c-1.4.8-.14,2.96,1.26,2.16,2.28-1.3,4.43-2.81,6.59-4.28s4.51-2.83,6.83-4.14c2.1-1.19,4.37-1.98,6.49-3.16,1.16-.64,2.36-1.17,3.6-1.63s2.56-1.13,3.84-1.21c1.6-.1,1.61-2.6,0-2.5h0Z"/>
  </g>
  <g id="Layer_10" data-name="Layer 10">
    <path class="cls-9" d="m130.59,187.62s1.18,41.12-15.17,46.28l38.88,19.2,50.47-5.65,6.58-6.79s-30.11-26.1-22.26-49.76c7.85-23.66-58.5-3.28-58.5-3.28Z"/>
    <path class="cls-2" d="m27.71,281.61s37.15-51.99,74.75-52.57c0,0,57.32,36.22,115.57,0,0,0,47.83,9.67,74.13,55.95l-264.45-3.38Z"/>
    <path class="cls-5" d="m83.32,143.56s14.22,48.34,75.36,48.79c61.72.45,74.14-44.03,74.14-44.03,0,0,28.89-8.25,18.34-37.15,0,0-6.88-14.68-17.43-8.25,0,0,8.71-44.94-44.94-58.24s-95.39,16.05-94.47,46.32c0,0-24.31,5.5-22.93,21.1,1.38,15.59-2.29,28.54,11.92,31.47Z"/>
  </g>
  <g id="Layer_12" data-name="Layer 12">
    <path class="cls-4" d="m86.25,78.3s75.97-90.99,156.55,2.48c0,0,2.65,11.13,7.48,17.82,4.83,6.69,8.58,7.22,8.58,7.22,0,0-13.78-4.8-15.3-7.13-1.53-2.33-2.64,6.92,1.38,9.44s-7.99-.83-8.34-8.17l-139.61-3.02-13.26,14.31s7.38-6.59,9.32-10.44c1.94-3.85-25.52,10.69-27.01,10.69s20.32-26.17,20.22-33.22Z"/>
    <path class="cls-13" d="m98.08,97.48c.68-6.75.8-13.54.37-20.31-.02-.25-1.47,0-1.45.39.43,6.77.31,13.56-.37,20.31-.02.18,1.41.04,1.45-.39h0Z"/>
    <ellipse class="cls-6" cx="135.53" cy="128.57" rx="4.9" ry="12"/>
    <ellipse class="cls-6" cx="186.79" cy="128.87" rx="4.9" ry="12"/>
    <path class="cls-3" d="m105.84,98.05c-.37-8.11-.07-16.26.89-24.31"/>
    <path class="cls-3" d="m119.38,97.96c-.37-8.11-.07-16.26.89-24.31"/>
    <path class="cls-3" d="m158.64,99.2c-.37-8.11-.07-16.26.89-24.31"/>
    <path class="cls-3" d="m172.2,98.63c-2.77-7.47-4.92-15.24-6.42-23.18"/>
    <path class="cls-3" d="m183.78,99.2c-.37-8.11-.07-16.26.89-24.31"/>
    <path class="cls-3" d="m210.46,100.66c-.37-8.11-.07-16.26.89-24.31"/>
    <path class="cls-14" d="m234.56,99.66c-4.47-.1-8.93-.2-13.4-.31-10.73-.25-21.45-.49-32.18-.74-13.02-.3-26.05-.6-39.07-.89-11.22-.26-22.44-.51-33.67-.77-5.45-.12-10.91-.28-16.37-.37-.08,0-.15,0-.23,0-.66-.02-1.59.18-1.89.86-.27.61.24,1.11.86,1.13,4.47.1,8.93.2,13.4.31,10.73.25,21.45.49,32.18.74,13.02.3,26.05.6,39.07.89,11.22.26,22.44.51,33.67.77,5.45.12,10.91.28,16.37.37.08,0,.15,0,.23,0,.66.02,1.59-.18,1.89-.86.27-.61-.24-1.11-.86-1.13h0Z"/>
    <path class="cls-3" d="m224.9,100.59c-1.49-7.98-2.32-16.09-2.49-24.2"/>
    <path class="cls-3" d="m234.05,100.6c-1.49-7.98-2.32-16.09-2.49-24.2"/>
    <path class="cls-8" d="m176.37,113.64c6.81-2.21,14.35-2.02,21.05.52"/>
    <path class="cls-8" d="m123.87,113.05c6.81-2.21,14.35-2.02,21.05.52"/>
    <path class="cls-1" d="m149.88,158.18c2.31,3.44,6.99,5.37,11.31,4.66,3.3-.54,6.14-2.43,8.8-4.32"/>
    <path class="cls-12" d="m82.91,113.4c.39-.14.78-.28,1.17-.42-.63.22-.1.04.24-.07.72-.23,1.45-.44,2.18-.63.67-.18,1.33-.34,2.01-.5.09-.02,1.42-.29.44-.1.41-.08.81-.15,1.22-.22-.93-.93-1.87-1.85-2.8-2.78.32-.23.13-.09-.09.04-.69.41.33-.13-.13.07-.6.25.76-.2.13-.04s1.1-.16-.04,0l3.37,2.2c.26-.29.31-.35.14-.18.17-.16.34-.31.52-.45.35-.26.37-.28.06-.05.42-.23.4-.23-.06,0l-6-.99c.03-.06-.27.42-.3.48l-.19.24c.18-.17.19-.18.02-.04-.17.13-.16.14.03,0,.24-.15.2-.12-.12.07.2-.1,1.53-.53.67-.34l4.55,1.96c.2-.27.4-.53.62-.78-.28.31.44-.36.52-.44.21-.16.17-.14-.12.06.14-.09.28-.18.43-.26.27-.15.19-.12-.24.1.47-.19.41-.18-.2.03l-4.55-1.96c-.13.17-.26.34-.4.5-.24.26-.29.33-.16.19.13-.13.07-.08-.19.16,1.13-.74,2.44-1.06,3.92-.93.44.74.88,1.47,1.32,2.21.46-.51,1.4-1.35,2.2-1.94.05-.04.62-.43.33-.24-.35.23.44-.26.51-.3.21-.12.41-.23.62-.35,1.02-.58-.77.33.3-.16l-5.11-2.16c-1,.72.28-.16-.31.23-.27.18-.54.35-.82.51s-.56.32-.84.47c-.27.14-.78.37-.23.12-.59.27-1.19.5-1.79.73.64-.24.22-.07-.19.05-.33.1-.66.19-1,.27-1.27.33-2.54.64-3.81.95-.66.16-1.31.32-1.97.48-.51.13.7-.04-.16,0,.21-.01.4-.07.6,0l-.04,2.57c-.25.18-.19.14.18-.11.22-.14.44-.28.67-.41.34-.2.68-.4,1.02-.59.13-.07,1.53-.78.76-.41.35-.17.71-.33,1.07-.48.84-.36,1.7-.67,2.57-.96-1.01.34.34-.1.54-.17.45-.15.9-.29,1.36-.43,3.81-1.2,8.11-1.7,11.52-3.88.69-.44,1.97-1.24,1.7-2.28-.26-.97-1.81-1.18-2.61-1.13-3.59.25-7.02.96-10.39,2.22l5.68,1.58c.1-.15.71-.94.44-.65.15-.15.32-.28.48-.42.28-.23.26-.23,0,0,.35-.3.19-.12-.13.05.52-.27.06,0-.23.07-.27.07-.82.13-.23.06-.61.06-1.75-.63-1.82-.2-.33,1.96.65,4.09,1.82,5.59.43.56,1.73.64,2.31.64,1.1,0,2.39-.26,3.4-.7,1.1-.48,3.54-1.75,2.39-3.24-.97-1.24-1.15-2.66-1.2-4.18-.07-2.38-2.92-2.54-4.74-2.41-3.93.29-8.27,2-10.53,5.4-.67,1.01-.18,1.77.93,2.1,1.53.46,3.31.02,4.76-.52.25-.1.5-.19.75-.27-.51.17-.5.18,0,.02.45-.11.9-.23,1.35-.35.32-.07.26-.06-.2.04.26-.05.52-.09.79-.13.15-.02,1.71-.19.89-.13l-.91-3.4c-.2.13-.4.26-.61.37.45-.21.46-.22.01-.03-.49.18-.45.17.11-.04-.17.05-.35.1-.52.14-.91.24-1.82.44-2.73.68-1.84.49-3.65,1.07-5.45,1.66-4.34,1.4-8.32,3.17-12.09,5.75-.91.62-1.4,2.13-.04,2.57,4.24,1.37,8.82-.34,12.97-1.4s7.95-2.77,11.42-5.29c1-.72,1.31-2,.04-2.57-1.49-.67-3.74-.24-5.15.41-3.31,1.52-6.2,3.51-8.66,6.2-1.01,1.1.28,2.06,1.32,2.21,4,.58,7.84-1.26,10.27-4.37.62-.79.34-1.59-.53-1.99-1.14-.52-2.86-.35-4.01.03-3.11,1.04-5.99,2.55-7.98,5.25-.59.81-.36,1.58.53,1.99,1.23.56,2.77.25,4.01-.03,3.16-.7,6.14-2.56,7.5-5.57.45-.99-.98-1.5-1.63-1.62-1.38-.25-3.1.03-4.36.63-2.08.98-3.85,2.14-5.36,3.89-.58.67-.38,1.34.25,1.81.82.61,2.18.53,3.12.39,3.05-.45,5.83-1.56,8.33-3.36.68-.49,1.31-1.48.6-2.22-.76-.8-2.44-.73-3.4-.56-4.06.71-8,1.77-11.88,3.18-.99.36-3.67,1.9-2.39,3.24s4.31.46,5.72-.06h0Z"/>
    <path class="cls-12" d="m88.65,106.31c-.84-.87-2.02-1.2-3.19-1.27-1.48-.1-2.92.25-4.29.77-.98.37-1.87.97-2.64,1.66-.56.5-1.01,1.12-1.49,1.69l.55-.66c-.31.37-.64.71-1.03,1.01l.78-.6c-1.49,1.15-3.29,2.28-3.72,4.27-.19.9.04,1.85.66,2.53,1.07,1.18,2.99,1.45,4.47,1.2,1.15-.19,2.29-.49,3.29-1.13.58-.38,1.53-1.16,1.62-1.94.08-.74-.23-1.35-.92-1.69-.86-.42-1.95-.54-2.89-.38-.06.01-.12.02-.19.02l1.1-.04h-.09c.33.04.65.08.98.13-.09-.01-.17-.03-.26-.06l.81.29c-.09-.04-.16-.08-.24-.13l.59.44c-.16-.12-.28-.26-.38-.42l.32.58c-.11-.21-.18-.41-.19-.64v.67c.01-.28.07-.54.18-.8l-.29.68c.11-.23.24-.43.4-.62l-.55.66c.22-.25.47-.47.73-.68l-.78.6c.66-.51,1.36-.97,1.98-1.53.56-.5,1.01-1.13,1.5-1.7l-.55.66c.28-.33.56-.64.9-.91l-.78.6c.1-.07.2-.13.3-.19l-.97.52c.11-.06.22-.1.34-.15l-1.13.39c.12-.04.23-.07.35-.09l-1.18.23c.09-.01.18-.02.27-.03l-1.1.04c.09,0,.17,0,.26,0l-.98-.13c.11.02.22.04.33.08l-.81-.29c.11.04.2.09.3.16l-.59-.44c.07.05.13.11.19.17.59.62,1.56.83,2.37.87,1.1.06,2.42-.2,3.41-.66.84-.39,1.85-.92,2.31-1.78.33-.61.5-1.35-.05-1.93h0Z"/>
  </g>
  <g id="Layer_11" data-name="Layer 11">
    <path class="cls-10" d="m233.59,100.37c1.03,1.06,1.34,2.58,2.36,3.66,1.13,1.19,2.5,2.18,3.76,3.23,1.17.98,2.33,2.09,3.83,2.54,1.41.42,2.91.36,4.36.21.15-.02,1.1-.31.79-.61-.64-.62-1.28-1.25-1.93-1.87-.57-.56-1.26-1.1-1.71-1.76s-.45-1.41-.48-2.16c-.04-.94-.08-1.88-.11-2.82-.01-.37-1.47-.1-1.45.39.04.94.07,1.88.11,2.82.03.74.06,1.47.46,2.12.42.68,1.08,1.21,1.64,1.76.71.69,1.41,1.37,2.12,2.06l.79-.61c-1.4.14-2.86.16-4.17-.45-1.39-.65-2.56-1.87-3.72-2.84-1.1-.91-2.33-1.78-3.24-2.88-.84-1.02-1.13-2.37-2.05-3.32-.31-.32-1.67.21-1.35.53h0Z"/>
    <path class="cls-10" d="m97.2,97.05c.26,1.55-1.67,2.78-2.78,3.47-.72.45-1.46.85-2.24,1.19-.21.1-.7.19-.87.35-.23.23.11.13.22.02.34-.31-.95-.04-1.06,0-1.61.69-3.22,1.4-4.81,2.14-1.5.7-3.17,1.37-4.44,2.45-.93.78-1.67,1.86-2.81,2.36-.87.38-1.82.63-2.74.88-1.77.49-3.55.92-5.34,1.32-.54.12-1.3.7-.29.47,1.87-.42,3.73-.86,5.58-1.37,1.56-.43,3.38-.81,4.71-1.8,1.01-.75,1.76-1.81,2.83-2.49.87-.55,1.83-.99,2.76-1.44,1.77-.84,3.56-1.63,5.36-2.4h-1.06c-.57.53.4.41.72.34,1.02-.21,2.02-.69,2.94-1.15,1.56-.78,5.13-2.53,4.75-4.75-.04-.24-1.5.07-1.45.39h0Z"/>
    <path class="cls-10" d="m71.58,111.38c1.41.21,2.9-.23,4.18-.77.47-.19.93-.42,1.35-.7.16-.11.33-.24.41-.42.17-.36-.14-.6-.47-.65s-.79.12-.94.44.14.56.44.6c-.25-.04-.49-.22-.42-.49,0-.03.13-.22.08-.16-.07.08.15-.1.07-.06-.02,0-.04.03-.06.04-.05.03-.1.06-.15.1-.1.07.15-.08.04-.02-.03.02-.07.04-.1.06-.39.21-.79.39-1.2.55-.03.01-.06.02-.09.03.08-.03.1-.04.04-.02-.07.02-.14.05-.21.07-.12.04-.24.08-.37.11-.26.08-.52.14-.79.19-.03,0-.06.01-.1.02.08-.01.09-.02.04,0-.07,0-.15.02-.22.03-.13.02-.25.03-.38.03-.06,0-.12,0-.19,0-.17,0,.1,0-.06,0-.14,0-.27-.02-.41-.04-.34-.05-.79.12-.94.44s.14.55.44.6h0Z"/>
    <path class="cls-10" d="m79.38,113.59c.57,0,1.53-.86.55-.86-.57,0-1.53.86-.55.86h0Z"/>
    <path class="cls-10" d="m234.69,99.46c-.57-7.51-1.8-14.96-2.17-22.49-.04-.75-1.5-.53-1.47.11.37,7.62,1.6,15.16,2.18,22.76.05.65,1.5.31,1.45-.39h0Z"/>
    <path class="cls-10" d="m225.42,100.1c-1.19-3.73-1.49-7.61-1.75-11.5-.27-4.18-.54-8.37-.82-12.55-.02-.3-1.48-.04-1.45.39.27,4.18.54,8.37.82,12.55.25,3.88.56,7.77,1.75,11.5.12.37,1.56-.05,1.45-.39h0Z"/>
    <path class="cls-10" d="m210.81,99.61c.54-7.62-.83-15.36.9-22.89.1-.43-1.34-.21-1.44.22-1.74,7.53-.36,15.26-.9,22.89-.03.49,1.41.19,1.44-.22h0Z"/>
    <path class="cls-10" d="m184.57,98.73c-.91-1.62-1.11-3.41-1.12-5.24-.01-2.17.11-4.34.2-6.51.08-1.96.08-3.96.45-5.89.4-2.11,1.09-4.18,1.67-6.24.12-.44-1.32-.24-1.44.21-.58,2.06-1.27,4.13-1.67,6.24-.4,2.08-.38,4.25-.47,6.36-.15,3.64-.92,8.13.94,11.45.25.44,1.63-.06,1.45-.39h0Z"/>
    <path class="cls-10" d="m173.14,98.88c-2.5-7.66-5.48-15.34-6.89-23.3-.11-.62-1.56-.26-1.45.39,1.41,7.96,4.39,15.64,6.89,23.3.2.62,1.65.22,1.45-.39h0Z"/>
    <path class="cls-10" d="m159.17,98.22c.33-4.04.52-8.1.56-12.15.02-1.99,0-3.98-.06-5.96-.06-2.05-.17-4.09.34-6.1.07-.29-1.34-.1-1.43.26-.44,1.75-.44,3.52-.39,5.31.06,2.13.1,4.27.09,6.4-.02,4.22-.22,8.43-.56,12.63-.02.18,1.41.04,1.45-.39h0Z"/>
    <path class="cls-10" d="m119.85,97.65c.05-3.94.1-7.87.15-11.81.03-1.93.05-3.86.08-5.79s-.08-3.94.62-5.79c.3-.8-1.15-.84-1.39-.2-.63,1.67-.66,3.39-.69,5.15-.03,2.08-.05,4.17-.08,6.25-.05,4.09-.11,8.18-.16,12.27-.01.79,1.46.6,1.47-.09h0Z"/>
    <path class="cls-10" d="m106.33,96.87c.49-7.96-.68-16.08,1.41-23.89.08-.3-1.33-.11-1.43.26-2.1,7.85-.93,16.02-1.43,24.02-.01.2,1.42.04,1.45-.39h0Z"/>
    <path class="cls-10" d="m98.97,97.25c-.67-3.36.08-6.73.2-10.11.06-1.56-.08-3.07-.35-4.61-.3-1.75-.62-3.47-.39-5.24.1-.71-1.38-.51-1.47.12-.22,1.67.02,3.31.31,4.95.3,1.76.5,3.48.41,5.28-.17,3.34-.83,6.67-.17,10,.13.64,1.58.27,1.45-.39h0Z"/>
    <path class="cls-11" d="m140.47,98.02c-2.44-8.13-4.23-16.44-5.35-24.85-.06-.47-1.52-.15-1.45.39,1.13,8.41,2.91,16.72,5.35,24.85.15.49,1.59.1,1.45-.39h0Z"/>
    <path class="cls-12" d="m86.77,106.64l-3.33.97-1.59.47c-.2.06-.6.28-.79.23l.75-.13c1.01-.08,1.85.18,2.54.78l.36.74c-.05-.12-.08-.25-.08-.39l.05.82c.04-.35,0-.27-.13.22.18-.34.12-.25-.18.26-.52.44-.61.53-.28.28-.66.37-.79.46-.39.27-1.27.59-.37.17.05.09.33-.07.67-.12,1-.19,1.69-.37,3.25-1.14,4.78-1.91.59-.29,1.18-.58,1.79-.84.34-.15.69-.29,1.04-.43.17-.07.35-.14.53-.2-.69.25-.8.29-.33.12,1.34-.45,2.68-.84,4.06-1.15,1-.22,2.17-.89,2.84-1.68.51-.6,1-1.6.72-2.41-.71-2.1-3.35-2.16-5.13-1.76-2.77.61-5.49,1.54-8.07,2.72-1.11.51-2.19,1.1-3.31,1.59-.83.37,1.04-.3-.07,0-.33.09-.66.15-.99.21-.92.17-1.76.42-2.64.78-1.54.64-3.19,1.89-3.79,3.51-.77,2.08.18,3.91,2.28,4.6,1.95.63,3.93.04,5.81-.51l4.05-1.18c1.04-.3,2.13-.84,2.84-1.68.51-.6,1-1.6.72-2.41-.68-2.01-3.38-2.28-5.13-1.76h0Z"/>
    <path class="cls-12" d="m81.75,111.99c.03-.09.05-.18.06-.27.03-.24.06-.48.05-.72,0-.18-.04-.36-.1-.53-.11-.3-.32-.58-.51-.83-.11-.15-.25-.27-.41-.37-.28-.2-.59-.31-.93-.34-.44-.1-.88-.14-1.33-.09-.57.02-1.12.1-1.67.24-.59.11-1.17.27-1.73.49l-.99.44c-.52.25-.99.59-1.4,1l-.33.5c-.13.34-.05.63.23.86.18.11.33.26.45.43l-.27-.39c.22.32.33.71.3,1.11l.04-.47c-.01.11-.03.22-.07.33-.12.26-.09.49.1.67.13.26.36.41.68.46.41.12.82.17,1.24.15.52.03,1.04,0,1.56-.11l1.17-.25c.74-.19,1.45-.46,2.13-.81l.81-.49c.4-.25.71-.59.93-1.01h0Z"/>
    <path class="cls-12" d="m227.64,106.78c.2-.03.4-.05.61-.08.04,0,1.02-.12.38-.05-.58.07.12,0,.23-.02.26-.02.51-.04.77-.06.21-.01.41-.02.62-.03.37-.02.31,0-.03-.02.45.01.91.04,1.36.1.16.02.67.14.27.04.19.05.39.09.58.15.34.1.68.22.99.36.9.43,1.69,1.03,2.63,1.39.53.2,1.09.29,1.65.38.26.04.54.05.79.12-.29-.08.05.04.11.08.44.31,1.14.88,1.57,1.46,1.03,1.4,1.58,3.15,1.77,4.86.06.58,1.22.75,1.58.79,1.02.11,2.23-.08,3.2-.36s2.11-.64,2.95-1.29c.47-.36,1.04-.8.97-1.47-.23-2.08-1.03-3.97-2.31-5.63-.65-.84-1.42-1.46-2.4-1.88-.6-.26-1.25-.37-1.9-.47,0,0-.89-.19-.49-.07-.18-.05-.4-.12-.55-.19-.93-.41-1.8-1.06-2.77-1.45-1.07-.43-2.25-.64-3.39-.75-2.56-.26-5.15.06-7.69.38-1.09.14-2.33.55-3.31,1.06-.53.27-1.53.84-1.74,1.49-.54,1.65,2.94,1.23,3.56,1.15h0Z"/>
    <path class="cls-12" d="m231.79,106.76h.82c.4-1.44.8-2.87,1.2-4.3,1.09-.38,2.14-.4,3.15-.06-.09-.04-.18-.08-.26-.14l.57.36c-.12-.1-.21-.19-.31-.31-1.93,1.32-3.86,2.63-5.79,3.95.22,0,.45,0,.67,0,.86.04-.8-.1-.11,0,.38.05.75.11,1.12.18.24.05.51.09.74.18l-.42-.12c.12.04.25.07.37.11.4.12.79.26,1.18.41,1.51.57,3.12,1.19,4.49,2.05l-.57-.36c.28.19.52.39.74.65.46.56,1.7.64,2.31.65,1.1,0,2.39-.26,3.4-.7s3.59-1.79,2.38-3.25c-.68-.82-1.74-1.28-2.68-1.72s-1.88-.86-2.84-1.24c-2.34-.91-4.8-1.48-7.33-1.45-1.66.02-3.41.51-4.79,1.45-.82.56-1.77,1.51-1,2.5.48.61,1.33.93,2.06,1.07,1.32.25,2.67.08,3.96-.25.89-.23,1.76-.61,2.52-1.13.46-.32,1.18-.84,1.28-1.45.23-1.4-1.55-1.72-2.6-1.7h-.82c-1.15.04-2.34.28-3.4.71-.75.31-1.89.88-2.35,1.61-.32.5-.57,1.16-.03,1.64.6.54,1.55.66,2.31.65h0Z"/>
    <path class="cls-10" d="m98,96.11c-1.32.56-2.5,1.37-3.77,2.04s-2.79,1.11-4.18,1.69c-2.85,1.2-5.62,2.66-8.28,4.22-1.21.71-2.33,1.53-3.61,2.13s-2.52,1.05-3.69,1.74c-2.15,1.28-3.94,3.43-3.79,6.05.09,1.6,2.59,1.61,2.5,0-.15-2.68,2.58-4.02,4.67-4.94,2.4-1.06,4.52-2.48,6.82-3.73,2.42-1.32,4.85-2.64,7.43-3.62,1.22-.46,2.44-.87,3.58-1.5s2.32-1.4,3.58-1.94c1.48-.63.2-2.78-1.26-2.16h0Z"/>
    <path class="cls-10" d="m233.09,101.73c1.85.79,3.98.76,5.96.94,1.06.1,2.2.09,3.21.45.95.34,1.93.91,2.76,1.48.75.52,1.37,1.22,2.02,1.85.69.67,1.47,1.31,1.84,2.23.82,2.04,1.3,4.28,1.93,6.39.46,1.54,2.87.88,2.41-.66-.66-2.21-1.18-4.53-2.04-6.67-.4-.99-1.05-1.75-1.8-2.49s-1.51-1.55-2.34-2.23c-1.66-1.36-3.76-2.41-5.9-2.65-1.17-.13-2.35-.22-3.52-.33-1.05-.1-2.29-.05-3.28-.47-.63-.27-1.33-.18-1.71.45-.31.52-.17,1.45.45,1.71h0Z"/>
  </g>
</svg>