<svg width="413" height="178" viewBox="0 0 413 178" fill="none" xmlns="http://www.w3.org/2000/svg">
<path d="M65.6139 159.657C46.623 149.501 9.24063 134.181 4.09858 111.768C-1.01193 89.3899 3.34147 64.6018 15.7392 45.9075C29.3987 25.2507 51.5758 12.8223 74.3207 7.14167C97.0656 1.46107 120.694 1.80535 144.038 2.18406C198.361 3.07918 252.684 3.93988 307.038 4.835C324.925 5.11043 343.032 5.4547 360.225 10.7566C377.418 16.0585 393.885 27.041 402.655 44.0139C411.74 61.6066 411.488 82.9863 410.573 103.161C409.942 117.242 408.807 132.218 401.109 143.545C390.951 158.521 372.497 162.928 355.683 166.233C300.035 177.181 245.68 175.425 189.149 175.976C132.618 176.527 74.5416 167.713 24.9192 138.174" fill="#E76605"/>
<path d="M65.6139 159.657C46.623 149.501 9.24063 134.181 4.09858 111.768C-1.01193 89.3899 3.34147 64.6018 15.7392 45.9075C29.3987 25.2507 51.5758 12.8223 74.3207 7.14167C97.0656 1.46107 120.694 1.80535 144.038 2.18406C198.361 3.07918 252.684 3.93988 307.038 4.835C324.925 5.11043 343.032 5.4547 360.225 10.7566C377.418 16.0585 393.885 27.041 402.655 44.0139C411.74 61.6066 411.488 82.9863 410.573 103.161C409.942 117.242 408.807 132.218 401.109 143.545C390.951 158.521 372.497 162.928 355.683 166.233C300.035 177.181 245.68 175.425 189.149 175.976C132.618 176.527 74.5416 167.713 24.9192 138.174" stroke="#E76605" stroke-width="4" stroke-miterlimit="10"/>
<path d="M104.35 110.421L110.47 71.6009H97.1502L97.9902 66.2009H130.75L129.85 71.6009H116.53L110.41 110.421H104.35ZM128.584 110.421L133.684 78.3209H138.904L139.084 82.3409C140.324 81.1809 141.724 80.1609 143.284 79.2809C144.884 78.4009 146.644 77.9609 148.564 77.9609C149.324 77.9609 150.004 78.0009 150.604 78.0809C151.244 78.1209 151.804 78.2209 152.284 78.3809L151.384 84.4409C150.784 84.3209 150.144 84.2409 149.464 84.2009C148.784 84.1609 148.084 84.1409 147.364 84.1409C145.484 84.1409 143.784 84.4409 142.264 85.0409C140.784 85.6409 139.464 86.3209 138.304 87.0809L134.644 110.421H128.584ZM154.763 124.641V120.261C156.843 119.781 158.843 118.801 160.763 117.321C162.723 115.881 164.463 113.581 165.983 110.421C164.503 110.261 163.243 109.941 162.203 109.461C161.163 108.941 160.323 108.141 159.683 107.061C159.043 105.941 158.583 104.441 158.303 102.561L154.703 78.3209H160.883L163.703 101.301C163.863 102.381 164.143 103.221 164.543 103.821C164.983 104.381 165.503 104.761 166.103 104.961C166.703 105.161 167.323 105.301 167.963 105.381L177.023 84.8009C177.423 83.8009 177.803 82.7009 178.163 81.5009C178.563 80.3009 178.803 79.0809 178.883 77.8409H184.343C184.343 79.5209 184.143 81.2609 183.743 83.0609C183.343 84.8209 182.663 86.7209 181.703 88.7609L171.503 110.121C169.903 113.521 168.243 116.221 166.523 118.221C164.803 120.261 162.983 121.761 161.063 122.721C159.143 123.721 157.043 124.361 154.763 124.641ZM186.591 110.421L193.851 64.6409H199.851L195.711 90.7409C197.951 90.5409 199.991 90.0009 201.831 89.1209C203.671 88.2409 205.271 86.9209 206.631 85.1609C207.991 83.4009 209.071 81.1209 209.871 78.3209H215.871C215.071 81.2409 214.071 83.6609 212.871 85.5809C211.711 87.4609 210.451 88.9809 209.091 90.1409C207.771 91.3009 206.431 92.2009 205.071 92.8409L214.191 110.421H207.891L199.971 94.7009C199.171 94.9009 198.311 95.0609 197.391 95.1809C196.471 95.3009 195.671 95.3609 194.991 95.3609L192.591 110.421H186.591ZM233.349 110.421L240.609 64.6409H246.609L243.909 81.8009C245.429 80.7209 247.229 79.8009 249.309 79.0409C251.389 78.2809 253.669 77.9009 256.149 77.9009C258.749 77.9009 260.729 78.5409 262.089 79.8209C263.489 81.1009 264.189 83.0809 264.189 85.7609C264.189 86.7209 264.109 87.8209 263.949 89.0609L260.529 110.421H254.529L257.769 89.8409C257.809 89.4809 257.829 89.1609 257.829 88.8809C257.869 88.5609 257.889 88.2409 257.889 87.9209C257.889 86.2009 257.429 85.0009 256.509 84.3209C255.629 83.6409 254.409 83.3009 252.849 83.3009C250.969 83.3009 249.289 83.5809 247.809 84.1409C246.329 84.6609 244.789 85.4409 243.189 86.4809L239.349 110.421H233.349ZM282.194 110.781C279.114 110.781 276.614 110.341 274.694 109.461C272.814 108.581 271.434 107.281 270.554 105.561C269.714 103.841 269.294 101.761 269.294 99.3209C269.294 98.1209 269.354 96.9809 269.474 95.9009C269.594 94.8209 269.734 93.7609 269.894 92.7209C270.414 89.4009 271.334 86.6409 272.654 84.4409C274.014 82.2409 275.814 80.6009 278.054 79.5209C280.334 78.4009 283.094 77.8409 286.334 77.8409C288.014 77.8409 289.554 78.0009 290.954 78.3209C292.394 78.6009 293.634 79.0809 294.674 79.7609C295.714 80.4409 296.534 81.3609 297.134 82.5209C297.774 83.6809 298.094 85.1409 298.094 86.9009C298.094 89.0609 297.694 90.8409 296.894 92.2409C296.094 93.6409 294.994 94.7209 293.594 95.4809C292.234 96.2409 290.674 96.7809 288.914 97.1009C287.154 97.3809 285.334 97.5209 283.454 97.5209C281.694 97.5209 280.094 97.4409 278.654 97.2809C277.254 97.0809 276.174 96.8809 275.414 96.6809C275.334 97.2009 275.274 97.7409 275.234 98.3009C275.234 98.8609 275.234 99.4009 275.234 99.9209C275.234 102.121 275.934 103.721 277.334 104.721C278.774 105.721 281.134 106.221 284.414 106.221H294.314L293.774 109.821C292.414 110.061 290.694 110.281 288.614 110.481C286.574 110.681 284.434 110.781 282.194 110.781ZM281.594 93.9209C283.874 93.9209 285.814 93.7409 287.414 93.3809C289.014 92.9809 290.234 92.3209 291.074 91.4009C291.954 90.4409 292.394 89.1409 292.394 87.5009C292.394 85.7409 291.854 84.4809 290.774 83.7209C289.734 82.9209 288.114 82.5209 285.914 82.5209C283.754 82.5209 281.994 82.9609 280.634 83.8409C279.274 84.6809 278.214 85.9209 277.454 87.5609C276.694 89.1609 276.154 91.1209 275.834 93.4409C276.594 93.5609 277.474 93.6809 278.474 93.8009C279.514 93.8809 280.554 93.9209 281.594 93.9209ZM301.025 110.421L306.125 78.3209H311.345L311.525 82.3409C312.765 81.1809 314.165 80.1609 315.725 79.2809C317.325 78.4009 319.085 77.9609 321.005 77.9609C321.765 77.9609 322.445 78.0009 323.045 78.0809C323.685 78.1209 324.245 78.2209 324.725 78.3809L323.825 84.4409C323.225 84.3209 322.585 84.2409 321.905 84.2009C321.225 84.1609 320.525 84.1409 319.805 84.1409C317.925 84.1409 316.225 84.4409 314.705 85.0409C313.225 85.6409 311.905 86.3209 310.745 87.0809L307.085 110.421H301.025Z" fill="#FFFEFE"/>
</svg>
