<svg width="192" height="84" viewBox="0 0 192 84" fill="none" xmlns="http://www.w3.org/2000/svg">
<path d="M31.2406 74.4861C22.5113 69.8165 5.32821 62.7727 2.96463 52.468C0.615545 42.1793 2.61662 30.7824 8.31532 22.1873C14.594 12.69 24.7879 6.97576 35.2428 4.36399C45.6977 1.75222 56.5585 1.91051 67.2889 2.08462C92.2588 2.49617 117.229 2.8919 142.213 3.30345C150.435 3.43008 158.758 3.58837 166.661 6.02602C174.564 8.46367 182.133 13.5131 186.164 21.3167C190.34 29.4053 190.224 39.2351 189.804 48.5108C189.514 54.9848 188.992 61.8704 185.454 67.0781C180.784 73.9637 172.302 75.9898 164.573 77.5094C138.994 82.543 114.01 81.7357 88.0247 81.989C62.0397 82.2422 35.3443 78.19 12.535 64.6088" fill="#E76605"/>
<path d="M31.2406 74.4861C22.5113 69.8165 5.32821 62.7727 2.96463 52.468C0.615545 42.1793 2.61662 30.7824 8.31532 22.1873C14.594 12.69 24.7879 6.97576 35.2428 4.36399C45.6977 1.75222 56.5585 1.91051 67.2889 2.08462C92.2588 2.49617 117.229 2.8919 142.213 3.30345C150.435 3.43008 158.758 3.58837 166.661 6.02602C174.564 8.46367 182.133 13.5131 186.164 21.3167C190.34 29.4053 190.224 39.2351 189.804 48.5108C189.514 54.9848 188.992 61.8704 185.454 67.0781C180.784 73.9637 172.302 75.9898 164.573 77.5094C138.994 82.543 114.01 81.7357 88.0247 81.989C62.0397 82.2422 35.3443 78.19 12.535 64.6088" stroke="#E76605" stroke-width="4" stroke-miterlimit="10"/>
<path d="M51.707 50.2627L54.359 33.4407H48.587L48.951 31.1007H63.147L62.757 33.4407H56.985L54.333 50.2627H51.707ZM62.2082 50.2627L64.4182 36.3527H66.6802L66.7582 38.0947C67.2955 37.592 67.9022 37.15 68.5782 36.7687C69.2715 36.3874 70.0342 36.1967 70.8662 36.1967C71.1955 36.1967 71.4902 36.214 71.7502 36.2487C72.0275 36.266 72.2702 36.3094 72.4782 36.3787L72.0882 39.0047C71.8282 38.9527 71.5509 38.918 71.2562 38.9007C70.9615 38.8834 70.6582 38.8747 70.3462 38.8747C69.5315 38.8747 68.7949 39.0047 68.1362 39.2647C67.4949 39.5247 66.9229 39.8194 66.4202 40.1487L64.8342 50.2627H62.2082ZM73.5525 56.4247V54.5267C74.4539 54.3187 75.3205 53.894 76.1525 53.2527C77.0019 52.6287 77.7559 51.632 78.4145 50.2627C77.7732 50.1934 77.2272 50.0547 76.7765 49.8467C76.3259 49.6214 75.9619 49.2747 75.6845 48.8067C75.4072 48.3214 75.2079 47.6714 75.0865 46.8567L73.5265 36.3527H76.2045L77.4265 46.3107C77.4959 46.7787 77.6172 47.1427 77.7905 47.4027C77.9812 47.6454 78.2065 47.81 78.4665 47.8967C78.7265 47.9834 78.9952 48.044 79.2725 48.0787L83.1985 39.1607C83.3719 38.7274 83.5365 38.2507 83.6925 37.7307C83.8659 37.2107 83.9699 36.682 84.0045 36.1447H86.3705C86.3705 36.8727 86.2839 37.6267 86.1105 38.4067C85.9372 39.1694 85.6425 39.9927 85.2265 40.8767L80.8065 50.1327C80.1132 51.606 79.3939 52.776 78.6485 53.6427C77.9032 54.5267 77.1145 55.1767 76.2825 55.5927C75.4505 56.026 74.5405 56.3034 73.5525 56.4247ZM87.3449 50.2627L90.4909 30.4247H93.0909L91.2969 41.7347C92.2676 41.648 93.1516 41.414 93.9489 41.0327C94.7463 40.6514 95.4396 40.0794 96.0289 39.3167C96.6183 38.554 97.0863 37.566 97.4329 36.3527H100.033C99.6863 37.618 99.2529 38.6667 98.7329 39.4987C98.2303 40.3134 97.6843 40.972 97.0949 41.4747C96.5229 41.9774 95.9423 42.3674 95.3529 42.6447L99.3049 50.2627H96.5749L93.1429 43.4507C92.7963 43.5374 92.4236 43.6067 92.0249 43.6587C91.6263 43.7107 91.2796 43.7367 90.9849 43.7367L89.9449 50.2627H87.3449ZM107.607 50.2627L110.753 30.4247H113.353L112.183 37.8607C112.841 37.3927 113.621 36.994 114.523 36.6647C115.424 36.3354 116.412 36.1707 117.487 36.1707C118.613 36.1707 119.471 36.448 120.061 37.0027C120.667 37.5574 120.971 38.4154 120.971 39.5767C120.971 39.9927 120.936 40.4694 120.867 41.0067L119.385 50.2627H116.785L118.189 41.3447C118.206 41.1887 118.215 41.05 118.215 40.9287C118.232 40.79 118.241 40.6514 118.241 40.5127C118.241 39.7674 118.041 39.2474 117.643 38.9527C117.261 38.658 116.733 38.5107 116.057 38.5107C115.242 38.5107 114.514 38.632 113.873 38.8747C113.231 39.1 112.564 39.438 111.871 39.8887L110.207 50.2627H107.607ZM128.773 50.4187C127.438 50.4187 126.355 50.228 125.523 49.8467C124.708 49.4654 124.11 48.902 123.729 48.1567C123.365 47.4114 123.183 46.51 123.183 45.4527C123.183 44.9327 123.209 44.4387 123.261 43.9707C123.313 43.5027 123.373 43.0434 123.443 42.5927C123.668 41.154 124.067 39.958 124.639 39.0047C125.228 38.0514 126.008 37.3407 126.979 36.8727C127.967 36.3874 129.163 36.1447 130.567 36.1447C131.295 36.1447 131.962 36.214 132.569 36.3527C133.193 36.474 133.73 36.682 134.181 36.9767C134.631 37.2714 134.987 37.67 135.247 38.1727C135.524 38.6754 135.663 39.308 135.663 40.0707C135.663 41.0067 135.489 41.778 135.143 42.3847C134.796 42.9914 134.319 43.4594 133.713 43.7887C133.123 44.118 132.447 44.352 131.685 44.4907C130.922 44.612 130.133 44.6727 129.319 44.6727C128.556 44.6727 127.863 44.638 127.239 44.5687C126.632 44.482 126.164 44.3954 125.835 44.3087C125.8 44.534 125.774 44.768 125.757 45.0107C125.757 45.2534 125.757 45.4874 125.757 45.7127C125.757 46.666 126.06 47.3594 126.667 47.7927C127.291 48.226 128.313 48.4427 129.735 48.4427H134.025L133.791 50.0027C133.201 50.1067 132.456 50.202 131.555 50.2887C130.671 50.3754 129.743 50.4187 128.773 50.4187ZM128.513 43.1127C129.501 43.1127 130.341 43.0347 131.035 42.8787C131.728 42.7054 132.257 42.4194 132.621 42.0207C133.002 41.6047 133.193 41.0414 133.193 40.3307C133.193 39.568 132.959 39.022 132.491 38.6927C132.04 38.346 131.338 38.1727 130.385 38.1727C129.449 38.1727 128.686 38.3634 128.097 38.7447C127.507 39.1087 127.048 39.646 126.719 40.3567C126.389 41.05 126.155 41.8994 126.017 42.9047C126.346 42.9567 126.727 43.0087 127.161 43.0607C127.611 43.0954 128.062 43.1127 128.513 43.1127ZM136.933 50.2627L139.143 36.3527H141.405L141.483 38.0947C142.02 37.592 142.627 37.15 143.303 36.7687C143.996 36.3874 144.759 36.1967 145.591 36.1967C145.92 36.1967 146.215 36.214 146.475 36.2487C146.752 36.266 146.995 36.3094 147.203 36.3787L146.813 39.0047C146.553 38.9527 146.275 38.918 145.981 38.9007C145.686 38.8834 145.383 38.8747 145.071 38.8747C144.256 38.8747 143.519 39.0047 142.861 39.2647C142.219 39.5247 141.647 39.8194 141.145 40.1487L139.559 50.2627H136.933Z" fill="#FFFEFE"/>
</svg>
