<?xml version="1.0" encoding="UTF-8"?>
<svg id="Layer_6" data-name="Layer 6" xmlns="http://www.w3.org/2000/svg" viewBox="0 0 529.68 590.58">
  <defs>
    <style>
      .cls-1 {
        fill: #d6ae3b;
        stroke-width: .5px;
      }

      .cls-1, .cls-2, .cls-3, .cls-4, .cls-5, .cls-6, .cls-7, .cls-8, .cls-9, .cls-10, .cls-11, .cls-12 {
        stroke-miterlimit: 10;
      }

      .cls-1, .cls-6 {
        stroke: #595657;
      }

      .cls-2 {
        fill: #adafaf;
        stroke: #37383a;
        stroke-width: 3px;
      }

      .cls-3 {
        fill: #675123;
        stroke: #333435;
        stroke-width: 4px;
      }

      .cls-4 {
        fill: #552e8f;
      }

      .cls-4, .cls-5, .cls-7, .cls-9 {
        stroke: #fff;
      }

      .cls-4, .cls-5, .cls-7, .cls-9, .cls-10 {
        stroke-width: .75px;
      }

      .cls-5 {
        fill: #552e8e;
      }

      .cls-6 {
        fill: #c59d38;
        stroke-width: .25px;
      }

      .cls-13 {
        fill: #fff;
      }

      .cls-13, .cls-14 {
        stroke-width: 0px;
      }

      .cls-7 {
        fill: #532e8f;
      }

      .cls-8 {
        fill: #ec8025;
        stroke: #3d3f3f;
      }

      .cls-9 {
        fill: #542e8f;
      }

      .cls-10 {
        fill: #dad7dd;
        stroke: #58595b;
      }

      .cls-11 {
        stroke-width: 6px;
      }

      .cls-11, .cls-12 {
        fill: none;
        stroke: #222323;
      }

      .cls-12 {
        stroke-width: 5px;
      }

      .cls-14 {
        fill: #3b3f3f;
      }
    </style>
  </defs>
  <polygon class="cls-6" points="156.47 401.54 99.29 524.64 358.55 558.4 159.81 390.31 156.47 401.54"/>
  <g>
    <path class="cls-4" d="m144.62,84.35c-.11.15-.24.25-.39.3-.15.06-.35.05-.58-.02-.23-.07-.51-.2-.85-.37-.34-.18-.73-.43-1.17-.75-.48-.35-.85-.66-1.11-.92-.26-.26-.46-.49-.59-.69-.14-.2-.2-.38-.19-.54,0-.17.06-.32.17-.47l11.62-15.81-16.22-11.92-11.62,15.81c-.11.15-.24.25-.39.3-.15.06-.35.05-.58-.02-.23-.07-.51-.19-.85-.37-.34-.18-.74-.43-1.19-.77-.44-.32-.8-.62-1.08-.9-.28-.27-.49-.51-.62-.71-.14-.2-.2-.38-.19-.54s.07-.32.17-.47l25.14-34.2c.11-.15.24-.25.39-.3s.35-.05.58.02c.23.07.52.2.87.38.35.18.74.44,1.18.76.46.34.82.64,1.09.91.27.27.47.5.61.7.14.2.2.38.19.54,0,.16-.07.32-.17.47l-10.49,14.26,16.22,11.92,10.49-14.26c.11-.15.24-.25.39-.3.15-.06.35-.05.58.02s.51.19.84.36c.33.17.73.43,1.21.78.44.32.79.62,1.06.89.27.27.47.5.61.7.14.2.2.38.19.54,0,.16-.07.32-.17.47l-25.14,34.2Z"/>
    <path class="cls-4" d="m200.6,74.86c-.26.35-.5.64-.72.87-.23.23-.44.39-.63.49-.2.1-.38.14-.56.12-.17-.01-.33-.08-.48-.18l-10.02-7.37-22.72,30.9c-.11.15-.24.25-.39.3-.15.06-.35.05-.58-.02-.23-.07-.51-.19-.85-.37-.34-.18-.73-.43-1.19-.77-.44-.32-.8-.62-1.08-.9-.28-.27-.49-.51-.62-.71-.14-.2-.2-.38-.19-.54s.07-.32.17-.47l22.72-30.9-10.02-7.37c-.15-.11-.25-.24-.32-.4-.07-.16-.08-.35-.04-.56.04-.21.13-.46.28-.75.14-.29.34-.61.6-.96.26-.35.51-.64.75-.87.24-.23.46-.41.66-.52.19-.11.38-.16.55-.14.17.01.33.07.48.18l24.78,18.22c.15.11.25.24.32.4.06.16.08.36.04.58-.04.23-.14.49-.3.78-.16.29-.37.61-.62.96Z"/>
    <path class="cls-4" d="m220.32,140.01c-.11.15-.24.25-.4.3-.16.05-.35.04-.59-.03-.24-.07-.52-.2-.84-.37-.33-.17-.73-.43-1.2-.78-.44-.32-.79-.62-1.07-.89-.28-.28-.48-.51-.62-.71-.13-.2-.2-.38-.19-.54,0-.17.06-.32.17-.47l22.82-31.04-.06-.04-35.48,21.94c-.15.09-.31.14-.48.16-.17.02-.37-.01-.61-.09-.24-.08-.5-.2-.79-.37-.29-.17-.61-.39-.98-.66-.39-.28-.7-.55-.95-.78s-.44-.46-.58-.66c-.14-.2-.22-.38-.25-.55-.03-.17-.03-.32.02-.46l10.91-40-.03-.02-22.82,31.04c-.11.15-.24.25-.4.3s-.35.04-.59-.03c-.24-.07-.52-.2-.86-.38-.34-.18-.74-.44-1.21-.79-.45-.33-.82-.64-1.08-.9-.27-.27-.47-.5-.6-.7-.13-.2-.19-.37-.18-.53.01-.16.08-.31.18-.46l24.09-32.77c.57-.77,1.18-1.17,1.83-1.2.65-.03,1.23.14,1.73.51l2.91,2.14c.6.44,1.08.88,1.44,1.32s.63.9.79,1.39c.16.49.22.99.17,1.53-.05.53-.17,1.11-.36,1.73l-8.78,33.29.14.1,29.51-17.93c.61-.4,1.18-.7,1.7-.91s1.02-.32,1.48-.34c.46-.02.9.05,1.33.21.43.16.88.41,1.34.75l3.05,2.24c.28.21.52.44.71.71.19.27.31.55.36.86.05.3.03.63-.05.98-.08.35-.27.72-.55,1.1l-24.09,32.77Z"/>
    <path class="cls-4" d="m249.26,159.21c-.27.37-.51.66-.73.88-.22.22-.43.39-.64.5-.21.12-.41.17-.59.16-.18,0-.35-.07-.52-.19l-15.75-11.58c-.42-.31-.72-.75-.88-1.31-.17-.56.01-1.2.54-1.92l24.25-32.99c.11-.15.24-.25.39-.3.15-.06.35-.05.58.02.23.07.52.2.86.38s.74.44,1.18.76c.46.34.82.64,1.09.91.27.27.47.5.61.7.14.2.2.38.19.54s-.07.32-.17.47l-22.65,30.82,12.78,9.39c.17.12.28.27.34.44.06.17.07.37.04.58-.03.22-.12.47-.28.75-.15.28-.36.61-.63.98Z"/>
  </g>
  <path class="cls-10" d="m206.25,387.86l-54.94-185.63s-89.07-19.07-122.25-45.4l64.32,202.94,113.99,39.08-1.12-10.99Z"/>
  <path class="cls-10" d="m418.91,292.6l91.71-170.49s-49.81-76.26-54.84-118.32l-97.23,189.39,53.42,108.02,6.94-8.6Z"/>
  <g>
    <g>
      <path class="cls-3" d="m215.51,534.87s62.88-87.45,82.71-89.81c0,0,12.62,23.86-56.78,78.07l-14.37,17.4-11.57-5.66Z"/>
      <path class="cls-2" d="m190.63,583.57s-10.16-11.89,0-30.02c10.16-18.12,24.88-18.69,24.88-18.69l11.57,5.66s1.4,22.65-13.67,30.02c-15.07,7.36-11.92,1.98-22.78,13.03Z"/>
      <line class="cls-11" x1="225.81" y1="520.95" x2="238.14" y2="527.14"/>
      <line class="cls-12" x1="215.51" y1="533.84" x2="227.66" y2="539.25"/>
      <path class="cls-14" d="m192.88,578.3c-1.8-4.55-2.21-9.53-.99-14.29.61-2.37,1.52-4.59,3.32-6.29,1.45-1.38,3.12-2.49,4.3-4.13.38-.52-1.07-.4-1.35-.02-1.31,1.81-3.26,2.96-4.76,4.57s-2.4,3.86-2.97,6.06c-1.23,4.81-.84,9.89.99,14.5.2.49,1.63.06,1.45-.39h0Z"/>
      <path class="cls-14" d="m195.37,573.86c1.2-6.04,8.8-8.18,13.5-10.7s8.82-6.64,9.23-12.35c.02-.26-1.42-.08-1.45.39-.21,2.9-1.45,5.6-3.37,7.76-2.11,2.37-4.92,3.83-7.73,5.19-4.33,2.09-10.54,4.61-11.6,9.94-.08.39,1.36.16,1.43-.23h0Z"/>
    </g>
    <path class="cls-8" d="m185.93,571.46c-.37-1.78-.68-3.6-.38-5.39.15-.94.51-1.92,1.35-2.59s2.28-.91,3.22-.34c1.1.67,1.02,2,.83,3.11,1.01.53,2.15-.45,2.88-1.23,1.02-1.09,2.31-2,3.79-2.66.77-.35,1.93-.56,2.4.05.25.32.17.74.07,1.12-.53,1.86-1.49,3.64-2.83,5.22,3.53.91,6.84-2.57,10.52-2.19.65,1.39-.56,2.86-1.71,4.02-.9.92-1.8,1.83-2.7,2.75-.86.87-1.72,1.75-2.76,2.47-1.03.72-2.21,1.27-3.28,1.95-3.11,1.98-4.81,4.77-6.82,7.44-2.21-4.38-3.6-9.01-4.57-13.72Z"/>
  </g>
  <g>
    <path class="cls-4" d="m84.62,157.64c-.12.34-.22.6-.32.79-.09.18-.19.31-.27.37s-.17.07-.26.03c-.08-.04-.18-.12-.3-.23l-8.8-8.95c-.1-.12-.14-.31-.12-.56.02-.26.11-.62.27-1.09.08-.24.17-.45.25-.62.08-.17.15-.31.22-.42.07-.11.14-.19.21-.24.08-.05.15-.08.23-.1l12.42-1.61c.31-.04.49.05.54.27.05.22-.02.6-.21,1.16-.13.38-.24.68-.33.89s-.18.38-.26.5c-.08.12-.16.19-.25.22-.08.03-.19.06-.32.08l-9.27.99,6.57,6.33c.12.11.21.22.27.31s.1.22.1.37-.03.34-.09.57c-.06.23-.16.54-.29.93Z"/>
    <path class="cls-4" d="m101.35,165.55c-.03.09-.09.17-.18.22-.08.05-.21.08-.36.08s-.35-.03-.59-.08c-.24-.05-.54-.14-.89-.26-.36-.12-.65-.24-.88-.35-.23-.11-.4-.21-.52-.3-.12-.09-.19-.19-.23-.28-.03-.09-.04-.19,0-.28l2.5-7.24-6.7-2.31-2.5,7.24c-.03.09-.09.17-.17.22s-.2.08-.35.08c-.15,0-.35-.03-.59-.08-.24-.05-.54-.14-.9-.26-.35-.12-.64-.24-.87-.34-.23-.11-.4-.21-.52-.3-.12-.09-.2-.19-.24-.28-.04-.1-.04-.19,0-.28l5.83-16.92c.03-.09.09-.17.18-.22.08-.05.21-.08.36-.08s.35.03.6.08c.25.05.54.14.89.26.36.12.65.24.87.35.22.11.39.21.52.3.12.09.2.19.23.28.03.09.03.19,0,.28l-2.27,6.58,6.7,2.31,2.27-6.58c.03-.09.09-.17.18-.22.09-.05.2-.08.35-.08s.35.03.59.08.55.14.91.27c.35.12.64.23.86.34s.39.21.52.3c.12.09.2.19.24.28.04.1.04.19,0,.28l-5.83,16.92Z"/>
    <path class="cls-4" d="m118.7,164.25c-.15.42-.35.71-.61.84-.26.14-.56.15-.89.03l-7.52-2.59c-.18.53-.28,1.03-.31,1.5-.02.47.05.91.22,1.3.17.39.44.74.82,1.05.38.3.86.56,1.46.77.61.21,1.16.35,1.65.42.49.07.92.11,1.3.12s.69,0,.94,0c.25-.01.45,0,.58.05.08.03.15.07.19.12.04.05.07.12.08.22,0,.1,0,.22-.05.38-.04.16-.1.35-.18.58-.07.2-.13.38-.19.51-.06.14-.12.26-.17.35-.05.09-.11.17-.17.23-.06.06-.13.11-.21.15-.08.04-.28.08-.58.09-.31.02-.68,0-1.14-.03s-.96-.11-1.52-.21c-.56-.11-1.15-.26-1.76-.47-1.1-.38-2.01-.85-2.75-1.41-.73-.56-1.28-1.22-1.64-1.97-.36-.75-.53-1.61-.5-2.56.02-.95.24-2.01.63-3.16.38-1.1.86-2.04,1.45-2.82.59-.78,1.26-1.39,2.02-1.81.76-.42,1.58-.67,2.47-.72.89-.05,1.83.09,2.81.42,1.03.36,1.87.81,2.49,1.37.63.56,1.09,1.19,1.37,1.89.28.7.41,1.46.38,2.28-.03.82-.2,1.66-.5,2.53l-.19.55Zm-3.04-2.16c.37-.97.43-1.8.21-2.51-.23-.7-.78-1.21-1.66-1.51-.44-.15-.86-.2-1.24-.15-.38.05-.73.18-1.05.39-.31.21-.59.48-.84.83-.25.34-.46.73-.62,1.16l5.21,1.79Z"/>
    <path class="cls-4" d="m129.83,175.44c-.04.13-.13.21-.24.26-.12.04-.28.04-.49,0-.21-.04-.51-.12-.9-.25-.42-.14-.71-.26-.89-.36-.18-.1-.29-.2-.35-.3-.05-.1-.06-.22-.01-.34l.34-.98c-.7.37-1.42.59-2.18.67s-1.53-.02-2.33-.29c-.66-.23-1.23-.52-1.72-.88-.49-.36-.88-.78-1.16-1.25-.29-.47-.45-1-.5-1.58s.04-1.19.27-1.86c.25-.72.6-1.3,1.07-1.73.46-.43,1.04-.73,1.71-.88.68-.16,1.46-.17,2.35-.05.89.12,1.88.37,2.98.75l1.21.42.26-.75c.13-.39.21-.74.23-1.06.02-.32-.02-.6-.14-.86s-.3-.48-.57-.68c-.27-.2-.62-.37-1.07-.52-.58-.2-1.12-.31-1.62-.34-.5-.03-.95-.02-1.36.01-.4.04-.75.08-1.03.13s-.49.05-.64,0c-.1-.04-.18-.1-.24-.19s-.09-.21-.1-.34,0-.3.04-.48c.03-.19.09-.38.16-.6.1-.29.2-.5.3-.65s.24-.27.42-.36c.17-.09.45-.16.83-.21.38-.05.81-.07,1.29-.06.48.01.99.06,1.54.15.54.09,1.09.23,1.63.42.97.33,1.76.71,2.39,1.14.62.43,1.09.91,1.4,1.46.31.54.46,1.16.45,1.85,0,.69-.16,1.46-.45,2.31l-2.86,8.31Zm-1.6-6.47l-1.33-.46c-.56-.19-1.06-.32-1.48-.37-.42-.05-.79-.04-1.1.04-.31.08-.56.22-.75.41-.2.19-.35.45-.45.75-.18.52-.16.98.07,1.39.23.41.63.71,1.21.91.49.17.98.2,1.48.09.5-.11,1.04-.33,1.63-.66l.73-2.1Z"/>
    <path class="cls-4" d="m145.04,180.63c-.04.1-.09.18-.16.23-.07.05-.17.08-.29.09-.13,0-.29-.01-.48-.06s-.43-.12-.71-.21c-.3-.1-.53-.19-.71-.28-.18-.08-.32-.17-.42-.25s-.16-.17-.19-.26c-.03-.09-.02-.18.01-.28l.47-1.37c-.87.46-1.72.76-2.55.9-.83.14-1.67.06-2.52-.23-.94-.33-1.67-.78-2.2-1.37-.53-.59-.89-1.26-1.08-2.02-.2-.76-.25-1.58-.15-2.47.1-.89.31-1.79.62-2.71.38-1.1.84-2.05,1.38-2.84s1.14-1.43,1.81-1.89c.67-.46,1.39-.74,2.18-.84s1.62,0,2.5.3c.69.24,1.27.6,1.74,1.07.47.48.88,1.08,1.25,1.82l2.31-6.69c.03-.09.09-.17.16-.22.08-.06.19-.09.34-.09.15,0,.34.02.57.07.23.05.52.13.86.25.34.12.62.23.83.33.21.1.37.2.49.3.11.1.18.19.21.28.03.09.03.18,0,.28l-6.26,18.17Zm-.62-9.45c-.28-.8-.59-1.44-.94-1.93s-.76-.82-1.26-.99c-.45-.16-.88-.18-1.29-.06-.41.11-.77.32-1.1.63-.33.31-.62.68-.88,1.11-.26.43-.47.89-.64,1.38-.18.52-.31,1.04-.4,1.55-.09.52-.1,1-.04,1.45.06.45.2.84.44,1.18.23.34.59.59,1.07.76.24.08.49.13.74.14.25,0,.52-.02.81-.1s.6-.2.94-.37c.34-.17.72-.39,1.14-.65l1.41-4.1Z"/>
    <path class="cls-4" d="m162.2,179.24c-.15.42-.35.71-.61.84-.26.14-.55.15-.89.04l-7.52-2.59c-.18.53-.28,1.03-.31,1.5-.02.47.05.91.22,1.3.17.39.44.74.82,1.05.38.31.86.56,1.46.77.61.21,1.16.35,1.65.42.49.07.92.11,1.3.12.37,0,.69,0,.94,0,.25-.01.45,0,.59.05.08.03.15.07.19.12.04.05.07.12.08.22,0,.1,0,.22-.05.38-.04.16-.1.35-.18.58-.07.2-.13.38-.19.51s-.11.26-.17.35-.11.17-.17.23c-.06.06-.13.11-.21.15-.08.04-.28.08-.58.09-.31.02-.68,0-1.14-.03-.45-.04-.96-.11-1.52-.21-.56-.11-1.15-.26-1.76-.47-1.1-.38-2.01-.85-2.74-1.41-.73-.56-1.28-1.22-1.64-1.97-.36-.75-.53-1.61-.5-2.56.02-.95.23-2.01.63-3.16.38-1.1.86-2.04,1.45-2.82.59-.78,1.26-1.39,2.02-1.81.76-.42,1.58-.67,2.47-.72.89-.05,1.83.09,2.81.43,1.03.36,1.87.81,2.5,1.37.63.56,1.08,1.19,1.37,1.89.28.7.41,1.46.38,2.28-.03.81-.2,1.66-.5,2.52l-.19.55Zm-3.04-2.16c.36-.97.43-1.8.21-2.51-.23-.7-.78-1.21-1.66-1.51-.44-.15-.86-.2-1.24-.15-.38.05-.73.18-1.05.39-.32.21-.6.48-.84.83-.25.34-.46.73-.62,1.16l5.21,1.79Z"/>
    <path class="cls-4" d="m174.61,178.29c-.12.33-.22.6-.31.81s-.18.36-.25.47c-.08.11-.16.17-.23.2s-.16.02-.25,0c-.07-.03-.15-.07-.23-.13-.08-.06-.17-.13-.28-.21-.1-.08-.22-.16-.35-.24-.13-.08-.27-.15-.44-.21-.19-.07-.4-.09-.62-.08-.22.01-.46.07-.73.16-.26.09-.56.24-.88.44-.32.2-.68.46-1.08.77l-2.65,7.7c-.03.09-.09.16-.17.21-.08.05-.19.08-.34.08s-.34-.03-.57-.08c-.23-.05-.52-.14-.86-.26-.34-.12-.62-.23-.83-.33s-.38-.2-.5-.29c-.12-.09-.19-.18-.22-.27-.03-.09-.03-.18,0-.27l4.26-12.35c.03-.09.08-.17.15-.22.07-.05.17-.08.31-.09.14,0,.3.01.5.06s.44.11.72.21c.3.1.54.2.72.29.19.09.32.18.41.26.09.08.15.17.17.25.02.08.02.17-.01.27l-.53,1.54c.48-.35.92-.62,1.31-.83.39-.2.74-.35,1.06-.43.32-.09.62-.12.9-.1.28.02.55.07.81.16.12.04.25.09.38.16.13.06.27.13.41.22.14.08.25.17.35.25.1.08.16.15.2.21.03.06.05.13.06.19,0,.06,0,.15-.02.25-.01.1-.05.25-.11.45s-.14.46-.26.79Z"/>
    <path class="cls-4" d="m186.89,186.68c-.08.24-.16.44-.24.61-.08.17-.16.31-.23.42-.07.11-.15.19-.22.24-.07.05-.15.08-.22.08l-12.44,1.6c-.15.02-.27,0-.36-.03-.09-.04-.15-.12-.18-.23s-.02-.26.02-.45c.04-.19.11-.42.2-.7.13-.38.24-.68.33-.89.09-.22.18-.38.26-.5.08-.12.17-.19.25-.23.08-.04.19-.06.32-.07l9.27-.99-6.57-6.33c-.13-.12-.22-.22-.29-.32s-.1-.22-.1-.37.03-.34.1-.57c.06-.23.16-.54.3-.93.12-.34.22-.61.31-.79.09-.19.18-.31.27-.37s.18-.07.27-.03.19.12.29.23l8.81,8.97c.1.1.14.28.13.54s-.1.63-.26,1.1Z"/>
  </g>
  <g>
    <path class="cls-5" d="m92.09,217.55c0,.28-.01.53-.03.73-.02.21-.05.37-.09.49s-.09.21-.15.26c-.06.05-.13.07-.21.07-.11,0-.3-.09-.56-.26-.26-.18-.6-.37-1.02-.57s-.93-.4-1.52-.57-1.27-.26-2.05-.26c-.83,0-1.58.16-2.25.48-.67.32-1.25.77-1.72,1.35s-.84,1.28-1.1,2.09c-.26.82-.38,1.72-.38,2.7,0,1.08.13,2.04.39,2.86s.62,1.52,1.09,2.07,1.03.98,1.69,1.26c.66.28,1.38.42,2.18.42.39,0,.77-.05,1.15-.15s.73-.24,1.06-.44v-4.39h-3.25c-.16,0-.28-.11-.37-.33-.09-.22-.13-.59-.13-1.12,0-.27.01-.5.03-.69.02-.19.05-.33.1-.45.04-.11.1-.2.16-.25.06-.05.13-.08.21-.08h5.79c.14,0,.27.03.38.08s.21.13.29.24c.08.11.15.24.19.39.04.15.07.32.07.52v7.54c0,.29-.05.55-.14.77s-.28.39-.57.52-.64.26-1.07.4c-.42.14-.86.25-1.32.35s-.92.17-1.38.22-.93.07-1.4.07c-1.37,0-2.6-.22-3.68-.65-1.08-.43-2-1.06-2.75-1.89s-1.33-1.83-1.72-3.02-.6-2.53-.6-4.04.21-2.95.64-4.18c.42-1.24,1.02-2.29,1.8-3.15.78-.86,1.72-1.53,2.82-1.98,1.1-.46,2.33-.69,3.68-.69.74,0,1.42.06,2.03.17s1.14.25,1.6.41c.46.16.83.33,1.13.52s.51.35.63.48.21.33.26.58c.05.25.08.62.08,1.11Z"/>
    <path class="cls-5" d="m106.35,226.15c0,.45-.09.78-.27,1-.18.21-.43.32-.75.32h-7.2c0,.56.06,1.06.18,1.52.12.45.31.84.57,1.16s.6.56,1.01.73.9.25,1.48.25,1.1-.05,1.54-.14c.44-.09.82-.2,1.15-.31.32-.11.59-.21.8-.31s.38-.14.52-.14c.08,0,.15.02.2.05s.1.1.13.18c.04.09.06.21.07.37.01.16.02.36.02.61,0,.21,0,.4-.01.55s-.02.28-.04.39-.04.2-.08.27-.08.14-.14.21-.21.16-.47.28c-.26.12-.58.23-.98.34s-.85.21-1.37.29-1.06.12-1.64.12c-1.05,0-1.97-.15-2.76-.44s-1.45-.74-1.98-1.33-.93-1.35-1.19-2.26-.39-1.97-.39-3.19.14-2.21.41-3.14c.27-.93.67-1.72,1.19-2.37s1.16-1.15,1.9-1.49c.75-.34,1.59-.51,2.52-.51.99,0,1.84.16,2.54.48.7.32,1.28.77,1.73,1.34.45.57.78,1.25.99,2.03s.32,1.63.32,2.55v.59Zm-3.23-1.05c.03-1.04-.16-1.85-.56-2.44s-1.02-.89-1.86-.89c-.42,0-.79.09-1.11.26-.31.18-.58.41-.78.71-.21.3-.37.65-.48,1.05s-.17.84-.19,1.3h4.98Z"/>
    <path class="cls-5" d="m117.42,229.37c0,.74-.13,1.4-.38,1.96-.25.57-.61,1.04-1.07,1.42-.46.38-1,.67-1.63.86-.63.19-1.31.29-2.04.29-.44,0-.86-.04-1.27-.11s-.76-.17-1.08-.28c-.32-.11-.58-.23-.8-.34s-.37-.23-.46-.33c-.1-.1-.17-.26-.22-.48-.05-.22-.08-.54-.08-.97,0-.28,0-.51.03-.68s.04-.31.08-.41c.04-.1.08-.17.13-.21.05-.03.12-.05.2-.05.1,0,.24.06.43.18s.43.26.71.4c.28.15.61.28.99.41.38.13.8.19,1.28.19.3,0,.57-.03.8-.1.23-.07.44-.17.61-.29.17-.13.3-.29.39-.48.09-.2.13-.42.13-.67,0-.29-.08-.54-.25-.75-.16-.21-.38-.39-.65-.55s-.58-.3-.92-.44-.69-.29-1.05-.45c-.36-.17-.71-.36-1.05-.57-.34-.21-.65-.48-.92-.79s-.49-.69-.65-1.13-.25-.97-.25-1.58.11-1.2.33-1.72.54-.97.96-1.34c.42-.37.92-.66,1.52-.86.6-.21,1.27-.31,2.01-.31.37,0,.73.03,1.08.09.35.06.67.13.95.22.28.09.52.18.72.29.19.1.33.19.42.26s.14.15.18.22.06.16.08.26.03.23.05.38c.01.15.02.34.02.56,0,.26,0,.48-.02.64-.01.17-.04.3-.07.4-.03.1-.07.16-.12.2-.05.03-.12.05-.19.05-.08,0-.2-.05-.37-.15s-.38-.21-.63-.33-.54-.23-.88-.33-.71-.15-1.13-.15c-.3,0-.56.03-.78.1-.22.07-.4.17-.54.29s-.25.28-.32.45c-.07.17-.11.35-.11.55,0,.3.08.56.25.76.17.21.39.39.66.54.27.16.59.3.93.44.35.14.7.29,1.06.45.36.16.71.35,1.06.56.35.21.66.48.93.79.27.31.49.69.66,1.12s.25.95.25,1.55Z"/>
    <path class="cls-5" d="m126.62,231.77c0,.43-.02.76-.07.99-.05.23-.11.39-.19.48-.08.09-.2.18-.35.25-.16.07-.34.14-.54.19-.21.05-.43.1-.68.12s-.49.04-.74.04c-.66,0-1.24-.09-1.72-.28-.49-.19-.89-.47-1.21-.86s-.55-.87-.7-1.46-.23-1.28-.23-2.08v-6.69h-1.42c-.17,0-.3-.11-.38-.34-.09-.23-.13-.61-.13-1.15,0-.28.01-.52.03-.72.02-.2.06-.35.1-.46s.1-.19.17-.24.14-.07.23-.07h1.41v-2.92c0-.1.02-.19.07-.26.05-.08.14-.14.26-.2s.3-.09.52-.12c.22-.02.48-.04.8-.04s.6.01.81.04c.22.02.39.06.51.12s.21.12.27.2c.05.08.08.17.08.26v2.92h2.57c.09,0,.17.02.23.07s.12.13.17.24c.04.11.08.27.1.46s.03.43.03.72c0,.54-.04.92-.13,1.15-.09.23-.22.34-.38.34h-2.58v6.14c0,.71.1,1.25.3,1.6s.57.53,1.09.53c.18,0,.34-.02.48-.05.14-.03.27-.07.38-.12.11-.04.2-.08.28-.12.07-.03.14-.05.21-.05.05,0,.1.02.15.05s.09.1.11.21c.03.1.05.24.07.42s.03.4.03.67Z"/>
    <path class="cls-5" d="m138.84,233.11c0,.14-.04.24-.13.32-.09.08-.23.13-.42.17-.19.03-.47.05-.84.05-.4,0-.69-.02-.87-.05-.18-.03-.31-.09-.38-.17-.08-.08-.11-.19-.11-.32v-1.04c-.49.58-1.04,1.03-1.66,1.35s-1.31.48-2.07.48c-.63,0-1.2-.09-1.73-.27-.53-.18-.98-.45-1.37-.81-.38-.36-.68-.8-.89-1.33s-.32-1.14-.32-1.85c0-.76.13-1.42.4-1.98s.67-1.03,1.21-1.39c.53-.37,1.2-.64,1.99-.81.8-.18,1.72-.26,2.77-.26h1.15v-.79c0-.41-.04-.77-.11-1.08-.08-.31-.2-.56-.37-.77-.17-.21-.4-.36-.69-.45s-.64-.15-1.07-.15c-.56,0-1.05.07-1.49.21s-.82.29-1.16.45-.62.32-.84.45c-.23.14-.41.21-.55.21-.1,0-.18-.03-.26-.1-.08-.07-.14-.17-.19-.29-.05-.13-.09-.28-.11-.47s-.04-.39-.04-.62c0-.3.02-.54.07-.72.04-.18.13-.33.25-.48s.34-.3.65-.47c.31-.17.67-.33,1.09-.48.42-.15.87-.27,1.36-.36.49-.09,1-.14,1.52-.14.93,0,1.72.1,2.38.3s1.2.51,1.62.92c.42.42.73.95.93,1.6s.29,1.43.29,2.33v8.79Zm-3.27-5.6h-1.27c-.54,0-1,.04-1.38.13s-.69.22-.93.4c-.24.18-.41.39-.52.64s-.17.53-.17.86c0,.55.16.98.47,1.29s.75.47,1.31.47c.47,0,.9-.13,1.29-.4.39-.26.79-.65,1.2-1.16v-2.23Z"/>
    <path class="cls-5" d="m145.51,233.06c0,.1-.03.18-.08.26s-.14.13-.27.18c-.13.05-.3.09-.51.11s-.48.04-.81.04-.6-.01-.81-.04-.38-.06-.51-.11c-.13-.05-.22-.11-.27-.18-.05-.07-.08-.16-.08-.26v-19.26c0-.1.03-.19.08-.26.05-.08.14-.14.27-.2.13-.05.3-.1.51-.12s.48-.04.81-.04.6.01.81.04.38.07.51.12c.13.05.22.12.27.2s.08.17.08.26v19.26Z"/>
    <path class="cls-5" d="m81.47,269.06c0,.1-.03.18-.08.26-.05.07-.14.13-.27.18s-.3.09-.51.11c-.21.02-.48.04-.81.04s-.6-.01-.81-.04-.38-.06-.51-.11-.22-.11-.27-.18-.08-.16-.08-.26v-19.26c0-.1.03-.19.08-.26s.14-.14.27-.2.3-.1.51-.12.48-.04.81-.04.6.01.81.04c.21.03.38.07.51.12s.22.12.27.2c.05.08.08.17.08.26v19.26Z"/>
    <path class="cls-5" d="m96.75,262.4c0,1.11-.13,2.13-.4,3.05-.27.92-.67,1.71-1.21,2.37-.54.66-1.22,1.18-2.03,1.54-.81.36-1.76.54-2.85.54s-1.97-.16-2.74-.48-1.42-.79-1.94-1.41-.89-1.37-1.14-2.27-.37-1.92-.37-3.08.13-2.13.4-3.05.67-1.71,1.21-2.37,1.21-1.17,2.02-1.53,1.76-.54,2.84-.54,1.98.16,2.76.48c.78.32,1.42.78,1.93,1.4.51.62.89,1.37,1.13,2.27.25.9.37,1.93.37,3.09Zm-3.43.15c0-.64-.05-1.24-.14-1.78s-.25-1.01-.47-1.41-.51-.71-.88-.94c-.37-.22-.83-.34-1.38-.34-.5,0-.93.1-1.3.3s-.68.49-.92.88c-.24.39-.42.85-.54,1.39s-.18,1.16-.18,1.85c0,.64.05,1.24.15,1.78.1.54.25,1.01.47,1.41.22.4.51.71.88.93s.83.33,1.38.33c.5,0,.94-.1,1.31-.3s.68-.49.91-.87.42-.84.53-1.38.17-1.16.17-1.85Z"/>
    <path class="cls-5" d="m110.19,255.98s0,.11,0,.18c0,.07-.01.14-.03.23s-.03.18-.05.29c-.02.11-.05.23-.09.37l-3.55,11.82c-.04.17-.1.3-.18.4-.08.1-.2.18-.37.24-.17.06-.41.1-.7.12s-.68.03-1.16.03-.85-.01-1.15-.04c-.3-.02-.53-.07-.7-.12s-.29-.14-.36-.24c-.08-.1-.13-.23-.18-.39l-3.55-11.82c-.05-.2-.09-.37-.13-.53s-.05-.27-.05-.34c0-.07,0-.13,0-.19,0-.1.02-.18.07-.26.05-.07.13-.13.26-.18s.29-.08.51-.1c.22-.02.49-.03.81-.03.36,0,.65.01.88.04s.4.06.52.1c.13.04.22.11.27.19.05.08.1.18.13.3l2.69,9.59.08.37.08-.37,2.65-9.59c.03-.12.07-.22.13-.3s.15-.15.27-.19c.12-.04.29-.08.5-.1.21-.02.48-.04.82-.04s.59,0,.8.03c.21.02.37.05.48.1.11.05.19.11.24.18s.07.16.07.26Z"/>
    <path class="cls-5" d="m122.83,262.15c0,.45-.09.78-.27,1-.18.21-.43.32-.75.32h-7.2c0,.56.06,1.06.18,1.52s.31.84.57,1.16.6.56,1.01.73c.41.17.9.25,1.48.25s1.1-.05,1.54-.14c.44-.09.82-.2,1.15-.31s.59-.21.8-.31c.21-.09.38-.14.52-.14.08,0,.15.02.2.05.05.03.1.1.13.18s.06.21.07.37c.01.16.02.36.02.61,0,.21,0,.4-.01.55,0,.15-.02.28-.04.39s-.04.2-.08.27-.08.14-.14.21-.21.16-.47.28c-.26.12-.58.23-.98.34-.4.11-.85.21-1.37.29-.51.08-1.06.12-1.64.12-1.05,0-1.97-.15-2.76-.44-.79-.29-1.45-.74-1.98-1.33s-.93-1.35-1.19-2.26c-.26-.91-.39-1.97-.39-3.19s.14-2.21.41-3.14c.27-.93.67-1.72,1.19-2.37.52-.65,1.15-1.15,1.9-1.49s1.59-.51,2.53-.51c.99,0,1.84.16,2.54.48.7.32,1.28.77,1.73,1.34.45.57.78,1.25.99,2.03.21.78.32,1.63.32,2.55v.59Zm-3.23-1.05c.03-1.04-.16-1.85-.56-2.44-.4-.59-1.02-.89-1.86-.89-.42,0-.79.09-1.11.26s-.57.41-.78.71c-.21.3-.37.65-.48,1.05-.11.41-.17.84-.19,1.3h4.98Z"/>
    <path class="cls-5" d="m136.86,269.06c0,.1-.03.18-.08.26-.05.07-.14.13-.26.18-.12.05-.29.09-.51.11s-.48.04-.8.04-.6-.01-.82-.04c-.22-.02-.39-.06-.51-.11-.12-.05-.21-.11-.27-.18-.05-.07-.08-.16-.08-.26v-7.46c0-.63-.04-1.13-.13-1.49s-.21-.67-.36-.93-.37-.46-.62-.6c-.25-.14-.55-.21-.88-.21-.42,0-.85.17-1.29.51-.43.34-.88.84-1.35,1.49v8.69c0,.1-.03.18-.08.26-.05.07-.14.13-.27.18s-.3.09-.51.11c-.21.02-.48.04-.81.04s-.6-.01-.81-.04-.38-.06-.51-.11-.22-.11-.27-.18-.08-.16-.08-.26v-13.07c0-.1.02-.18.07-.26.04-.07.12-.13.24-.18.11-.05.26-.09.44-.11.18-.02.41-.04.68-.04s.52.01.7.04.33.06.43.11.17.11.22.18c.04.07.07.16.07.26v1.51c.65-.78,1.32-1.37,1.99-1.76.68-.39,1.38-.59,2.11-.59.8,0,1.48.15,2.04.44.55.29,1,.69,1.34,1.19.34.5.58,1.09.74,1.77s.23,1.48.23,2.43v8.07Z"/>
    <path class="cls-5" d="m151.06,262.15c0,.45-.09.78-.27,1-.18.21-.43.32-.75.32h-7.2c0,.56.06,1.06.18,1.52.12.45.31.84.57,1.16s.6.56,1.01.73.9.25,1.48.25,1.1-.05,1.54-.14c.44-.09.82-.2,1.15-.31.32-.11.59-.21.8-.31s.38-.14.52-.14c.08,0,.15.02.2.05s.1.1.13.18c.04.09.06.21.07.37.01.16.02.36.02.61,0,.21,0,.4-.01.55s-.02.28-.04.39-.04.2-.08.27-.08.14-.14.21-.21.16-.47.28c-.26.12-.58.23-.98.34s-.85.21-1.37.29-1.06.12-1.64.12c-1.05,0-1.97-.15-2.76-.44s-1.45-.74-1.98-1.33-.93-1.35-1.19-2.26-.39-1.97-.39-3.19.14-2.21.41-3.14c.27-.93.67-1.72,1.19-2.37s1.16-1.15,1.9-1.49c.75-.34,1.59-.51,2.52-.51.99,0,1.84.16,2.54.48.7.32,1.28.77,1.73,1.34.45.57.78,1.25.99,2.03s.32,1.63.32,2.55v.59Zm-3.23-1.05c.03-1.04-.16-1.85-.56-2.44s-1.02-.89-1.86-.89c-.42,0-.79.09-1.11.26-.31.18-.58.41-.78.71-.21.3-.37.65-.48,1.05s-.17.84-.19,1.3h4.98Z"/>
  </g>
  <g>
    <path class="cls-9" d="m140.92,473.31c.05.37.08.69.1.97.01.28,0,.53-.02.74-.03.22-.08.42-.15.59-.07.18-.21.4-.41.68-.2.27-.65.72-1.34,1.33-.69.61-1.56,1.25-2.62,1.9-1.06.66-2.29,1.28-3.69,1.86-1.41.58-2.97,1.04-4.69,1.36-2.97.56-5.71.59-8.24.08-2.52-.51-4.76-1.54-6.7-3.09-1.94-1.56-3.56-3.62-4.85-6.21-1.29-2.58-2.18-5.67-2.68-9.26-.51-3.68-.48-7.05.1-10.12.58-3.07,1.61-5.77,3.1-8.1,1.49-2.33,3.39-4.26,5.71-5.78,2.32-1.52,4.97-2.56,7.96-3.13,1.32-.25,2.62-.37,3.9-.37,1.28,0,2.48.09,3.59.25,1.11.17,2.11.41,3,.73.89.32,1.52.61,1.88.86.36.25.6.44.72.59s.22.32.31.52c.09.21.17.46.25.74.08.29.14.64.2,1.05.06.46.09.85.09,1.18,0,.33-.04.61-.1.85-.06.24-.15.42-.27.55-.12.13-.27.21-.46.24-.33.06-.82-.07-1.48-.41-.65-.33-1.49-.68-2.5-1.04-1.01-.36-2.21-.64-3.61-.83-1.4-.19-3.04-.11-4.91.24-2.04.39-3.83,1.13-5.39,2.24-1.56,1.1-2.83,2.53-3.8,4.29-.97,1.76-1.63,3.8-1.97,6.13-.35,2.33-.32,4.91.07,7.75.39,2.81,1.05,5.24,1.98,7.28.93,2.04,2.08,3.68,3.45,4.91,1.37,1.23,2.96,2.05,4.77,2.47,1.81.42,3.79.43,5.94.02,1.82-.35,3.38-.86,4.69-1.56,1.3-.69,2.39-1.4,3.28-2.12s1.6-1.35,2.16-1.91c.55-.55,1.01-.86,1.37-.93.17-.03.31-.02.44.02.13.05.24.16.34.34.1.18.19.44.27.78s.16.77.23,1.29Z"/>
    <path class="cls-9" d="m172.67,460.96c.29,2.08.15,4.01-.41,5.78-.56,1.77-1.47,3.36-2.71,4.75-1.24,1.4-2.78,2.56-4.59,3.49-1.82.93-3.82,1.6-6.01,2.02-1.53.29-2.97.43-4.31.43-1.34,0-2.55-.09-3.62-.26-1.08-.17-1.99-.39-2.74-.64-.75-.26-1.28-.5-1.59-.72-.31-.22-.56-.53-.75-.93-.19-.4-.33-.95-.43-1.66-.07-.5-.1-.92-.1-1.26,0-.34.03-.62.1-.85.06-.22.16-.39.29-.5.13-.11.29-.18.48-.21.33-.06.82.04,1.48.32.66.28,1.49.55,2.49.83,1.01.28,2.2.49,3.59.64s2.95.06,4.69-.27c1.32-.25,2.5-.65,3.55-1.2,1.05-.55,1.92-1.21,2.63-1.99.7-.78,1.2-1.66,1.5-2.66.3-.99.37-2.07.2-3.24-.17-1.26-.62-2.28-1.33-3.06s-1.6-1.41-2.66-1.91c-1.06-.49-2.25-.9-3.56-1.23-1.31-.32-2.66-.66-4.04-.99-1.38-.34-2.73-.74-4.05-1.22-1.32-.48-2.53-1.1-3.63-1.88-1.1-.78-2.04-1.76-2.82-2.93-.78-1.18-1.3-2.67-1.55-4.47-.26-1.85-.14-3.57.35-5.15.49-1.58,1.29-2.98,2.39-4.2,1.1-1.22,2.47-2.24,4.1-3.08,1.64-.84,3.44-1.44,5.42-1.82,1.01-.19,2.04-.3,3.09-.32,1.05-.02,2.04.02,2.99.14.95.11,1.8.28,2.55.5.75.22,1.26.42,1.51.59.25.18.42.32.51.43.09.11.17.26.24.45s.14.41.2.68c.06.27.12.62.18,1.06.06.41.09.78.1,1.11,0,.33,0,.61-.05.84-.04.23-.12.41-.23.54-.12.13-.26.21-.42.24-.26.05-.69-.03-1.29-.25-.6-.21-1.32-.45-2.18-.69-.86-.25-1.86-.44-3-.56-1.14-.12-2.4-.06-3.76.2-1.27.24-2.36.62-3.25,1.13-.9.51-1.61,1.1-2.15,1.76-.54.66-.91,1.4-1.11,2.21-.2.81-.24,1.64-.13,2.49.17,1.23.61,2.24,1.33,3.02.71.78,1.61,1.42,2.68,1.92,1.07.5,2.27.92,3.6,1.25,1.33.34,2.68.67,4.06,1.01,1.38.34,2.74.74,4.08,1.2,1.35.46,2.57,1.08,3.68,1.84,1.11.76,2.05,1.74,2.83,2.91.78,1.18,1.29,2.65,1.54,4.41Z"/>
    <path class="cls-9" d="m205.91,454.66c.29,2.08.15,4.01-.41,5.78-.57,1.77-1.47,3.36-2.71,4.75-1.24,1.4-2.78,2.56-4.59,3.49-1.82.93-3.82,1.6-6.01,2.02-1.53.29-2.97.43-4.31.43s-2.55-.09-3.63-.26c-1.07-.17-1.99-.39-2.74-.64-.75-.26-1.28-.5-1.59-.72s-.56-.53-.75-.93c-.19-.4-.33-.95-.43-1.66-.07-.5-.1-.92-.1-1.26,0-.34.03-.62.1-.85.06-.22.16-.39.29-.5.13-.11.29-.18.48-.21.33-.06.82.04,1.48.32.66.28,1.49.55,2.49.83,1.01.28,2.2.49,3.59.64s2.95.06,4.69-.27c1.32-.25,2.5-.65,3.55-1.2,1.05-.55,1.92-1.21,2.62-1.99.7-.78,1.2-1.66,1.5-2.66.3-.99.36-2.08.2-3.24-.17-1.26-.62-2.28-1.33-3.06-.71-.78-1.6-1.41-2.66-1.91-1.06-.49-2.25-.9-3.56-1.23-1.31-.32-2.66-.66-4.04-1-1.38-.34-2.73-.74-4.05-1.22s-2.53-1.1-3.63-1.88c-1.1-.78-2.04-1.76-2.82-2.93-.78-1.18-1.3-2.67-1.55-4.47-.26-1.85-.14-3.57.35-5.15.49-1.58,1.29-2.98,2.39-4.2,1.1-1.22,2.47-2.24,4.1-3.08,1.64-.84,3.44-1.44,5.42-1.82,1.01-.19,2.04-.3,3.09-.32,1.05-.02,2.05.02,2.99.14.95.11,1.8.28,2.55.5.75.22,1.26.42,1.51.59.25.18.42.32.51.43.09.11.17.26.24.45.07.18.14.41.2.68.06.27.12.62.18,1.06.06.41.09.78.1,1.11,0,.33,0,.61-.05.84-.04.23-.12.41-.23.54-.12.13-.25.21-.42.24-.26.05-.69-.03-1.29-.25-.6-.21-1.32-.45-2.18-.7-.86-.25-1.85-.43-3-.56-1.14-.12-2.4-.06-3.76.2-1.27.24-2.36.62-3.25,1.13-.9.51-1.61,1.1-2.15,1.76-.54.67-.9,1.4-1.11,2.22-.2.81-.24,1.64-.13,2.49.17,1.23.61,2.24,1.33,3.02.71.78,1.61,1.42,2.68,1.92,1.07.5,2.27.92,3.6,1.25,1.33.34,2.68.67,4.06,1.01,1.38.34,2.74.74,4.08,1.2,1.35.46,2.57,1.07,3.68,1.84,1.11.76,2.05,1.74,2.83,2.91.78,1.18,1.29,2.65,1.54,4.41Z"/>
  </g>
  <g>
    <path class="cls-5" d="m437.06,86.56c-.76.64-1.5,1.17-2.2,1.59-.7.42-1.37.74-1.99.96-.62.22-1.21.36-1.76.4s-1.05.01-1.52-.09-.89-.28-1.27-.53c-.38-.24-.75-.57-1.09-.98l-2.26-2.7c-.14-.17-.16-.41-.04-.71.12-.3.42-.65.91-1.06l18.76-15.69c.49-.41.89-.64,1.2-.71.31-.06.54,0,.69.17l2.13,2.55c.52.62.85,1.24.99,1.86.14.62.11,1.26-.09,1.93-.2.67-.58,1.37-1.14,2.1-.56.73-1.3,1.49-2.23,2.27-.52.44-1.04.81-1.55,1.14s-1.01.58-1.49.78c-.48.19-.93.33-1.37.39-.44.07-.83.06-1.2-.02.13.38.16.81.08,1.28s-.25.99-.54,1.53-.68,1.12-1.18,1.71c-.5.6-1.12,1.2-1.85,1.81Zm-1.94-2.02c.5-.42.91-.83,1.24-1.24.33-.41.56-.8.7-1.17.14-.37.18-.74.13-1.09-.05-.36-.24-.72-.55-1.1l-1.02-1.22-6.12,5.12,1.25,1.49c.24.29.51.48.8.57s.62.1.99.04.77-.21,1.21-.44c.44-.23.9-.54,1.37-.94Zm8.77-8.23c.43-.36.79-.72,1.08-1.07.29-.35.5-.68.62-1,.12-.31.16-.62.13-.91-.04-.29-.19-.6-.46-.92l-.87-1.04-5.59,4.67.97,1.15c.25.3.52.47.82.53.3.05.63.03.99-.07.36-.1.74-.27,1.13-.5s.79-.51,1.18-.84Z"/>
    <path class="cls-5" d="m438.74,98.2c-.32.27-.6.49-.82.66-.23.17-.42.29-.57.38-.16.08-.28.13-.37.15-.09.01-.16,0-.2-.05l-4.27-5.1c-.14-.17-.16-.41-.04-.71s.42-.65.91-1.06l18.76-15.69c.49-.41.89-.64,1.2-.71.31-.06.54,0,.69.16l4.24,5.07s.05.11.02.2c-.02.08-.1.2-.21.34s-.28.31-.48.5c-.21.19-.47.43-.81.71-.31.26-.58.47-.81.64-.23.17-.42.29-.57.38-.16.08-.28.14-.37.15-.09.01-.16,0-.2-.05l-3.03-3.63-5.25,4.4,2.57,3.07s.04.12.02.21c-.03.09-.1.2-.2.33-.11.13-.26.3-.47.49-.21.2-.46.42-.77.68-.32.27-.59.49-.81.65s-.41.29-.56.37c-.15.08-.27.12-.36.13-.09,0-.15-.01-.19-.06l-2.57-3.07-6.07,5.08,3.06,3.66s.04.12.02.21c-.03.09-.1.2-.21.34-.11.14-.27.3-.47.5-.21.19-.47.43-.79.69Z"/>
    <path class="cls-5" d="m445.42,108.51c-.12.1-.23.18-.33.23s-.21.06-.33.02c-.12-.03-.26-.11-.41-.25-.15-.13-.33-.33-.55-.59-.18-.22-.32-.41-.41-.55-.09-.15-.13-.29-.13-.42,0-.13.03-.24.1-.35.07-.11.16-.23.28-.36l4.04-4.93c.45-.56.84-1.07,1.18-1.53.33-.46.59-.87.76-1.23.18-.36.27-.69.27-.98,0-.29-.09-.54-.27-.76l-.54-.64-8.2,6.86c-.11.09-.23.16-.34.2-.12.04-.24.04-.36.01-.12-.03-.25-.1-.4-.2-.14-.1-.3-.26-.47-.46-.17-.2-.29-.38-.37-.54-.08-.16-.12-.3-.13-.43-.01-.12.02-.24.08-.35s.15-.21.26-.3l19.54-16.34c.49-.41.89-.64,1.2-.71.31-.06.54,0,.69.16l2.2,2.63c.22.27.4.5.52.69.12.19.23.37.31.54.22.51.32,1.05.29,1.63-.03.58-.18,1.18-.48,1.81-.29.63-.72,1.28-1.28,1.95-.56.67-1.27,1.37-2.12,2.08-.72.6-1.41,1.11-2.08,1.52-.67.41-1.3.73-1.91.95-.6.22-1.18.35-1.73.4-.55.04-1.06,0-1.53-.14-.03.28-.1.58-.21.9-.11.32-.27.67-.49,1.05-.22.38-.48.79-.8,1.24-.32.44-.69.93-1.12,1.45l-3.52,4.4c-.36.43-.62.74-.79.93-.17.19-.31.33-.42.42Zm12.37-14.87c.71-.59,1.24-1.17,1.6-1.73s.5-1.1.41-1.61c-.03-.15-.09-.31-.17-.47-.08-.16-.22-.36-.41-.59l-.77-.93-6.1,5.11.88,1.05c.24.29.53.49.87.58.33.1.7.1,1.09.02.39-.08.81-.24,1.25-.48s.89-.56,1.36-.95Z"/>
    <path class="cls-5" d="m471.37,100.6c-.32.27-.6.49-.84.67-.24.18-.44.31-.6.4s-.29.14-.39.16c-.1.02-.17,0-.21-.05l-2.13-2.54-17.34,14.51c-.11.09-.23.16-.34.2-.12.04-.24.04-.36.01-.12-.03-.25-.1-.4-.21-.14-.11-.3-.26-.47-.46-.17-.2-.29-.38-.37-.54-.08-.16-.12-.3-.13-.43,0-.12.01-.24.07-.35.06-.11.15-.21.26-.3l17.34-14.51-2.13-2.54c-.04-.05-.05-.12-.01-.22.04-.09.11-.21.23-.35.12-.14.28-.31.5-.52.22-.2.49-.44.81-.71.33-.28.62-.51.86-.69.24-.18.45-.32.61-.41.16-.09.29-.14.38-.16.09-.01.16,0,.2.06l5.99,7.16s.05.12.02.21c-.03.09-.1.21-.22.35-.12.14-.29.32-.51.53s-.5.45-.83.73Z"/>
    <path class="cls-5" d="m462.9,113.55c-.64.54-1.12.89-1.42,1.04-.3.16-.51.17-.61.05l-2.73-3.26c-.11-.13-.06-.33.15-.61.21-.28.63-.68,1.27-1.21.62-.52,1.08-.86,1.39-1.01.3-.16.51-.17.62-.04l2.73,3.26c.05.06.07.14.05.23s-.08.21-.19.35c-.11.14-.27.31-.48.51-.21.2-.47.43-.78.69Z"/>
    <path class="cls-5" d="m481.22,112.38c-.32.27-.6.49-.84.67-.24.18-.44.31-.6.4s-.29.14-.39.16c-.1.02-.17,0-.21-.05l-2.13-2.54-17.34,14.51c-.11.09-.23.16-.34.2s-.24.04-.36.01c-.12-.03-.25-.1-.4-.21-.14-.11-.3-.26-.47-.46-.17-.2-.29-.38-.37-.54-.08-.16-.12-.3-.13-.43-.01-.12.01-.24.07-.35.06-.11.15-.21.26-.3l17.34-14.51-2.13-2.54c-.04-.05-.05-.12-.01-.22.04-.09.11-.21.23-.35.12-.14.28-.31.5-.52.22-.2.48-.44.81-.71.33-.28.62-.51.86-.69s.45-.32.61-.41c.16-.09.29-.14.38-.16.09-.01.16,0,.2.06l5.99,7.16s.05.12.02.21c-.03.09-.1.21-.22.35-.12.14-.29.32-.51.52s-.5.45-.83.73Z"/>
    <path class="cls-5" d="m469.25,134.66c-.32.27-.6.49-.82.66-.23.17-.42.29-.57.38-.15.08-.28.13-.37.15-.09.01-.16,0-.2-.05l-4.27-5.1c-.14-.17-.16-.41-.04-.71s.42-.65.91-1.06l18.76-15.69c.49-.41.89-.64,1.2-.71.31-.06.54,0,.69.16l4.24,5.07s.05.11.02.2c-.02.08-.1.2-.21.34s-.28.31-.48.5c-.21.19-.47.43-.81.71-.31.26-.58.47-.81.64-.23.17-.42.29-.57.38-.16.08-.28.14-.37.15-.09.01-.16,0-.2-.05l-3.03-3.63-5.25,4.4,2.57,3.07s.04.12.02.21c-.03.09-.1.2-.2.33-.11.13-.26.29-.47.49-.21.2-.46.42-.77.68-.32.27-.59.49-.81.65s-.41.29-.56.37c-.15.08-.27.12-.36.13-.09,0-.15-.01-.19-.06l-2.57-3.07-6.07,5.08,3.06,3.66s.04.12.02.21c-.03.09-.1.2-.21.34-.11.14-.27.3-.47.5-.21.19-.47.43-.79.69Z"/>
    <path class="cls-5" d="m480.42,138.38c-1.13.95-2.21,1.68-3.23,2.19-1.02.52-1.96.84-2.81.98-.86.14-1.62.1-2.29-.12-.67-.21-1.22-.58-1.65-1.1-.29-.35-.5-.73-.63-1.13-.13-.4-.21-.79-.23-1.16-.02-.37,0-.72.06-1.03.06-.31.13-.56.22-.75.09-.19.25-.41.5-.67.25-.25.63-.6,1.14-1.02.34-.29.64-.52.88-.71.24-.18.44-.33.61-.42.16-.1.29-.15.39-.16.09-.01.16,0,.21.06.06.07.06.25-.02.54-.07.29-.13.63-.18,1.02-.05.4-.04.81.02,1.26.06.44.25.86.57,1.24.21.25.46.42.76.51.29.09.62.11.96.05.35-.06.73-.19,1.13-.41.4-.21.82-.5,1.24-.85.49-.41.85-.82,1.1-1.24.24-.42.42-.84.52-1.27.1-.43.17-.87.19-1.33.02-.46.05-.93.09-1.42.04-.5.12-1.01.24-1.55.12-.54.34-1.11.64-1.7s.72-1.22,1.26-1.89c.54-.66,1.26-1.37,2.15-2.12,1.03-.86,2.01-1.53,2.94-2,.93-.47,1.78-.77,2.56-.9s1.46-.09,2.06.12c.6.2,1.1.54,1.49,1,.2.24.36.51.49.82.12.3.21.62.25.94.04.32.05.63.02.93-.03.3-.08.52-.15.67-.07.14-.13.26-.19.34-.06.08-.15.19-.27.3-.12.12-.27.26-.46.43-.19.17-.43.37-.72.61-.32.27-.6.49-.82.67-.23.18-.42.32-.58.42-.16.1-.29.17-.38.19s-.17,0-.21-.05-.05-.21,0-.47c.05-.25.09-.55.12-.89.03-.34.02-.69-.03-1.05-.05-.37-.2-.69-.44-.98-.19-.23-.41-.37-.67-.44-.26-.07-.53-.08-.83-.02-.3.06-.62.18-.95.37s-.66.41-.98.68c-.48.4-.84.81-1.08,1.22-.25.42-.42.84-.52,1.27-.1.43-.16.88-.18,1.34s-.05.94-.09,1.43c-.04.49-.12,1.01-.24,1.56-.12.54-.33,1.12-.63,1.71-.3.6-.72,1.23-1.25,1.89-.53.66-1.23,1.35-2.1,2.07Z"/>
    <path class="cls-5" d="m500.53,135.46c-.32.27-.6.49-.84.67-.24.18-.44.31-.6.4-.16.09-.29.14-.39.16-.1.02-.17,0-.21-.05l-2.13-2.54-17.34,14.51c-.11.09-.22.16-.34.2-.12.04-.24.04-.36.01-.12-.03-.25-.1-.4-.21-.15-.11-.3-.26-.47-.46s-.29-.38-.37-.54c-.08-.16-.12-.3-.13-.43-.01-.12.01-.24.07-.35.06-.11.15-.21.26-.3l17.34-14.51-2.13-2.54c-.04-.05-.05-.12-.01-.22.04-.09.11-.21.23-.35.12-.14.28-.31.5-.52.22-.2.49-.44.81-.71.33-.28.62-.51.86-.69s.45-.32.61-.41c.16-.09.29-.14.38-.16.09-.01.16,0,.2.06l5.99,7.16s.05.12.02.21c-.03.09-.1.21-.22.35-.12.14-.29.32-.51.53-.22.21-.5.45-.83.73Z"/>
  </g>
  <g>
    <path class="cls-1" d="m370.21,534.97l150.55-307.22S331.55,50.32,298.98,55.17l-59.99,112.9-17.94-6.73-107.36,202.7,244.99,194.48,11.53-23.55Z"/>
    <g>
      <path class="cls-7" d="m311.5,193.22c-.97,1.32-2.01,2.43-3.1,3.32-1.1.89-2.28,1.46-3.54,1.73-1.27.26-2.62.19-4.07-.23-1.45-.42-3.01-1.24-4.69-2.48-.57-.42-1.11-.88-1.62-1.37-.51-.49-.95-.98-1.33-1.45-.38-.48-.69-.91-.93-1.32-.24-.4-.38-.7-.42-.88-.04-.19-.05-.36-.05-.51,0-.16.03-.33.09-.51.06-.18.15-.39.29-.62.14-.23.32-.5.55-.81.28-.38.53-.68.74-.91.21-.23.42-.38.61-.47.19-.09.36-.12.52-.09.16.02.32.09.48.21.16.12.33.34.49.66.16.32.36.68.61,1.1.24.42.56.86.93,1.34.38.47.88.95,1.52,1.41.7.51,1.34.88,1.94,1.09.6.22,1.21.25,1.83.09.62-.15,1.27-.52,1.94-1.1.68-.58,1.43-1.42,2.25-2.54l17.56-23.88c.09-.12.21-.2.37-.25.16-.04.36-.02.62.06.25.08.56.23.93.44.36.21.8.51,1.31.89.49.36.9.69,1.22.98.32.29.56.54.7.75.14.21.22.4.24.57.02.17-.02.32-.11.44l-17.88,24.32Z"/>
      <path class="cls-7" d="m339.38,225.68c-.1.14-.22.23-.36.27-.14.04-.33.03-.56-.04-.23-.07-.51-.19-.84-.38-.32-.18-.7-.43-1.13-.75-.47-.35-.84-.65-1.12-.9-.27-.25-.47-.48-.59-.67s-.18-.37-.17-.5c0-.14.06-.28.16-.42l2.26-3.07c-2.65.3-4.99.22-7.02-.24-2.03-.46-3.83-1.27-5.41-2.43-1.84-1.36-3.21-2.76-4.09-4.2-.88-1.44-1.39-2.89-1.51-4.35-.13-1.46.07-2.9.6-4.33.53-1.43,1.41-2.98,2.65-4.67l10.35-14.08c.1-.14.22-.23.36-.27.14-.04.34-.03.6.05.26.07.57.22.91.43.35.21.77.5,1.26.87.49.36.89.67,1.2.94.31.27.53.51.67.73.14.22.21.41.23.56.01.16-.03.3-.13.44l-9.94,13.51c-1,1.36-1.68,2.53-2.04,3.52-.37.99-.52,1.95-.46,2.88.06.93.34,1.83.84,2.69.5.86,1.25,1.65,2.23,2.38,1.27.93,2.81,1.49,4.63,1.66,1.82.17,3.97.04,6.46-.38l11.93-16.22c.1-.14.22-.23.36-.27.14-.04.34-.03.6.05.26.07.56.21.9.42.34.21.76.5,1.27.88.49.36.89.68,1.2.94.31.27.53.51.65.72.13.21.2.4.23.56.02.16-.02.31-.12.45l-17.06,23.21Z"/>
      <path class="cls-7" d="m353.83,236.3c-.1.14-.23.22-.38.26-.15.03-.34.02-.58-.05-.23-.07-.53-.2-.88-.41-.35-.21-.79-.5-1.3-.88-.49-.36-.89-.68-1.19-.96-.3-.28-.53-.52-.67-.73-.15-.21-.22-.39-.22-.54,0-.15.05-.29.15-.43l25.33-34.46c.1-.14.22-.23.37-.28.15-.05.34-.04.59.04.24.07.54.21.9.42.35.21.77.49,1.27.85.51.38.92.7,1.22.98.3.28.52.51.65.72.13.21.2.39.21.55,0,.16-.04.31-.14.45l-25.33,34.46Z"/>
      <path class="cls-7" d="m368.27,246.92c-.1.14-.23.22-.38.26-.15.04-.34.02-.58-.05-.23-.07-.53-.2-.88-.41-.35-.21-.79-.5-1.3-.88-.49-.36-.89-.68-1.19-.96-.3-.28-.53-.52-.67-.73-.14-.21-.22-.39-.22-.54,0-.15.05-.29.15-.43l17.06-23.21c.09-.12.21-.21.35-.26s.34-.04.59.04.54.21.9.42c.35.21.78.49,1.27.85.51.38.92.7,1.22.98.3.28.52.52.65.72.13.21.2.39.21.55s-.04.31-.12.43l-17.06,23.21Zm23.41-30.62c-.73,1-1.46,1.51-2.17,1.54-.72.03-1.68-.4-2.89-1.29-1.19-.87-1.87-1.65-2.05-2.33-.18-.68.09-1.5.81-2.48.73-1,1.46-1.51,2.17-1.54.72-.03,1.68.4,2.89,1.29,1.19.87,1.87,1.65,2.05,2.33.18.68-.09,1.5-.81,2.48Z"/>
      <path class="cls-7" d="m410.52,258.55c-.49.67-1.04,1-1.65.99-.61-.01-1.17-.21-1.69-.58l-18.22-13.39c-.95,1.29-1.65,2.56-2.1,3.82-.45,1.26-.59,2.52-.41,3.79.18,1.27.7,2.53,1.56,3.77.86,1.24,2.13,2.48,3.79,3.7,1.32.97,2.56,1.74,3.72,2.32,1.16.58,2.2,1.03,3.12,1.36.92.33,1.68.58,2.3.76.62.17,1.05.35,1.3.54.14.11.25.23.32.37.07.14.09.3.06.46-.03.17-.1.37-.23.6-.13.24-.3.51-.53.82-.16.22-.32.41-.46.56-.14.15-.27.27-.4.38-.12.11-.26.18-.41.24-.15.05-.31.08-.5.09-.18.01-.63-.08-1.34-.27-.71-.19-1.58-.51-2.62-.95-1.03-.44-2.19-1.01-3.47-1.69-1.28-.69-2.57-1.51-3.88-2.48-2.27-1.67-4.07-3.4-5.39-5.19-1.32-1.79-2.18-3.64-2.57-5.55-.4-1.91-.31-3.87.26-5.89.57-2.02,1.62-4.08,3.17-6.17,1.47-1.99,3.09-3.56,4.88-4.7,1.78-1.14,3.66-1.84,5.63-2.09s4-.08,6.07.53c2.07.61,4.13,1.66,6.16,3.16,2.17,1.6,3.81,3.25,4.9,4.95,1.1,1.71,1.77,3.42,2.03,5.13s.13,3.4-.39,5.07-1.33,3.26-2.45,4.78l-.57.77Zm-4.17-5.01c1.7-2.19,2.4-4.38,2.09-6.57-.31-2.19-1.69-4.19-4.15-5.99-1.26-.92-2.51-1.54-3.74-1.84-1.24-.3-2.42-.36-3.54-.18-1.12.18-2.17.58-3.16,1.19-.99.61-1.85,1.38-2.59,2.29l15.09,11.09Z"/>
    </g>
  </g>
  <rect class="cls-5" x="20.06" y="365.37" width="79.11" height="66.96" rx="18.5" ry="18.5" transform="translate(-262.93 156.78) rotate(-44.61)"/>
  <g>
    <path class="cls-13" d="m70.87,403.45c.49.25.85.46,1.09.65.24.18.36.38.35.6s-.14.48-.4.79c-.26.31-.64.71-1.14,1.2-.52.51-.93.91-1.24,1.18-.31.27-.56.46-.76.56-.2.1-.37.15-.51.13-.14-.02-.3-.08-.47-.17l-5.25-2.66-7.43,7.33,2.56,5.11c.1.18.17.36.19.52.03.16,0,.34-.1.55-.09.2-.26.45-.51.73s-.59.65-1.03,1.08c-.47.46-.85.81-1.15,1.04-.29.23-.55.34-.77.32-.22-.02-.42-.15-.6-.39s-.39-.6-.62-1.08l-11.22-23.58c-.11-.23-.18-.44-.2-.63-.02-.19.03-.4.15-.63.12-.23.33-.51.64-.84.3-.33.71-.75,1.23-1.26.6-.59,1.09-1.06,1.46-1.4.37-.34.68-.58.94-.72.25-.14.48-.2.68-.17.2.03.42.11.68.24l23.42,11.51Zm-23.4-5.55l-.02.02,5.5,11.17,5.61-5.54-11.1-5.65Z"/>
    <path class="cls-13" d="m60.5,379.57c.76.77,1.13,1.47,1.11,2.07-.03.61-.46,1.33-1.32,2.18-.87.85-1.59,1.29-2.17,1.3-.58.01-1.24-.36-1.98-1.1-.76-.77-1.14-1.47-1.12-2.07s.46-1.34,1.32-2.19c.86-.84,1.58-1.27,2.17-1.28.59-.01,1.26.36,1.99,1.1Zm17.72,18.55c.1.1.16.22.17.36.01.14-.03.3-.13.5-.1.2-.26.43-.48.7-.22.27-.52.59-.89.96-.38.37-.7.67-.97.88-.27.22-.5.37-.7.47-.2.1-.37.13-.5.12s-.25-.07-.36-.18l-13.43-13.61c-.1-.1-.16-.22-.17-.36-.01-.14.02-.31.12-.51.09-.2.25-.44.46-.71.21-.27.51-.59.89-.97s.7-.66.98-.87c.27-.21.51-.36.72-.45.2-.09.37-.13.51-.11.14.02.25.08.36.18l13.43,13.61Z"/>
  </g>
</svg>