<svg width="134" height="138" viewBox="0 0 134 138" fill="none" xmlns="http://www.w3.org/2000/svg">
<path d="M133.846 68.7201C133.846 103.426 108.79 132.118 76.2413 136.775C73.1969 137.211 70.0831 137.436 66.923 137.436C63.2736 137.436 59.6936 137.135 56.2021 136.558C24.3399 131.291 0 102.92 0 68.7161C0 30.7652 29.9624 0 66.923 0C103.884 0 133.846 30.7652 133.846 68.7161V68.7201Z" fill="#E76605"/>
<path d="M106.477 43.5461C104.62 45.4731 102.046 46.6641 99.1939 46.6641C98.8316 46.6641 98.4695 46.6443 98.1188 46.6048C101.094 44.7727 103.391 41.9039 104.535 38.4812C104.535 38.4812 104.539 38.4812 104.539 38.4772C104.697 38.0182 104.832 37.5553 104.94 37.0765C102.585 39.6604 99.3673 41.4093 95.7564 41.8248C95.2015 41.8921 94.6389 41.9237 94.0685 41.9237C93.8874 41.9237 93.714 41.9198 93.5405 41.9079C92.3189 40.5902 90.8623 39.5021 89.2476 38.7028C87.4479 37.8006 85.4362 37.2704 83.3129 37.2031C83.1394 37.1912 82.9661 37.1873 82.7849 37.1873C80.9853 37.1873 79.2588 37.5157 77.6634 38.1211C77.2549 38.2754 76.8579 38.4416 76.4687 38.6355C71.4127 41.069 67.9135 46.3436 67.9135 52.4571C67.9135 53.7114 68.0639 54.9302 68.3375 56.0935C66.7883 56.0302 65.2545 55.8759 63.7516 55.6464C63.2699 55.5672 62.7882 55.4841 62.3103 55.3892C58.4759 54.6571 54.8188 53.3988 51.4198 51.6894C48.3792 50.1621 45.5429 48.2786 42.9648 46.0864C40.7952 44.2504 38.8105 42.2007 37.0378 39.9611C36.9608 39.8661 36.8837 39.7672 36.8105 39.6722C36.7064 39.8345 36.6101 39.9967 36.5253 40.1668C35.2844 42.3946 34.583 44.9706 34.583 47.7167C34.583 47.7998 34.583 47.8908 34.5869 47.9739C34.6177 50.0315 35.0416 51.9902 35.8008 53.7708C36.1245 54.5622 36.5176 55.31 36.9685 56.0183C38.298 58.1194 40.1131 59.8684 42.2557 61.0792C42.3521 61.1425 42.4523 61.194 42.5525 61.2415C42.3983 61.2731 42.2403 61.3008 42.0823 61.3166C41.643 61.376 41.1882 61.4077 40.7335 61.4077C38.4521 61.4077 36.3288 60.6756 34.5907 59.4292C34.5792 59.5598 34.5792 59.6943 34.5792 59.8288C34.5792 64.1894 36.3596 68.1226 39.2113 70.8964C41.431 73.0727 44.302 74.5328 47.4929 74.9601C46.3445 75.3914 45.1036 75.6249 43.8126 75.6249C42.4137 75.6249 41.0726 75.3519 39.8472 74.8493C41.6738 80.947 47.1191 85.4183 53.6087 85.6162C49.6432 89.8461 44.0747 92.4735 37.9126 92.4735C34.0821 92.4735 30.4827 91.4566 27.3612 89.676C34.8644 96.3434 44.6489 100.372 55.3505 100.372C79.0006 100.372 98.1688 80.6898 98.1688 56.4061C98.1688 55.0686 98.111 53.747 97.9954 52.4412C101.907 50.8545 105.009 47.6138 106.477 43.55V43.5461Z" fill="white"/>
</svg>
